<svg width="44" height="49" viewBox="0 0 44 49" fill="none" xmlns="http://www.w3.org/2000/svg">
<path d="M12.977 0C13.9113 0.000342023 14.6692 0.765492 14.6692 1.7093V4.56704C15.9912 4.59042 17.1401 4.67419 18.0821 4.88086C19.0572 5.09486 20.0729 5.49532 20.768 6.33866L21.0456 6.72815L21.1646 6.95739C21.6666 8.15279 21.4078 9.33496 20.9729 10.376C20.8365 10.7024 20.6628 11.0442 20.4683 11.4087C21.2239 11.4227 21.9043 11.4536 22.4844 11.54C23.5118 11.6932 24.6304 12.0627 25.3597 13.1447H25.3619C26.0941 14.2308 26.0177 15.4223 25.7762 16.4431C25.5428 17.4285 25.061 18.6296 24.518 19.993V19.9953L24.1765 20.8499C23.7779 21.8534 23.4292 22.7333 23.0616 23.4272C22.7224 24.0676 22.3131 24.6567 21.722 25.1321L21.4576 25.3302C20.7404 25.8201 19.9725 26.0217 19.1816 26.1158V29.6279H35.5391C37.0872 29.6279 38.4204 29.6238 39.4809 29.7681C40.588 29.9189 41.6502 30.2596 42.5105 31.1302L42.8101 31.4663C43.4551 32.2703 43.7303 33.2147 43.8611 34.1949C44.0039 35.2663 43.9999 36.6116 43.9999 38.1744V40.4535C43.9999 42.0163 44.0039 43.3616 43.8611 44.4329C43.7118 45.5523 43.3724 46.6231 42.5105 47.4932L42.5127 47.4954C41.6509 48.3676 40.5876 48.7088 39.4787 48.8598C38.4182 49.004 37.0861 49 35.5391 49H15.2332C13.6856 49 12.354 49.0039 11.2937 48.8598C10.1844 48.7089 9.11878 48.3671 8.25746 47.4932V47.491C7.3981 46.6215 7.06036 45.5508 6.91123 44.4329C6.76839 43.3616 6.77242 42.0164 6.77242 40.4535V26.1158C5.97853 26.0223 5.20943 25.8223 4.48976 25.3324L4.48536 25.3279C3.74923 24.8231 3.27072 24.1581 2.88353 23.4272C2.51619 22.7337 2.16639 21.8539 1.76645 20.8499V20.8455L1.42713 19.9908L1.42934 19.9886C0.886705 18.626 0.402134 17.4261 0.16903 16.4409C-0.0725744 15.4193 -0.147305 14.2309 0.583256 13.1447L0.874096 12.7708C1.59188 11.9708 2.56314 11.6712 3.46301 11.5378C4.04417 11.4517 4.72571 11.4199 5.48347 11.4065C5.28993 11.0431 5.11931 10.7014 4.98331 10.376C4.54836 9.33484 4.28942 8.15296 4.79162 6.95739L4.9084 6.72815C5.58962 5.61306 6.75738 5.12543 7.87188 4.88086C8.8138 4.67427 9.96296 4.59041 11.2848 4.56704V1.7093C11.2848 0.765357 12.0425 0.000123325 12.977 0ZM10.1567 40.4535C10.1567 42.1132 10.1616 43.1866 10.2669 43.9767C10.341 44.5317 10.4474 44.8015 10.5511 44.956L10.6525 45.0784L10.6569 45.0828L10.7781 45.183C10.9301 45.287 11.1963 45.3976 11.7453 45.4723C12.5273 45.5786 13.59 45.5814 15.2332 45.5814H15.7973V26.2093H10.1567V40.4535ZM19.1816 45.5814H35.5391C37.1818 45.5814 38.2449 45.5787 39.027 45.4723C39.7596 45.3726 39.9893 45.2106 40.1176 45.0806L40.1198 45.0784L40.2212 44.956C40.325 44.8015 40.4335 44.532 40.5076 43.9767C40.613 43.1866 40.6156 42.1131 40.6156 40.4535V38.1744C40.6156 36.5148 40.613 35.4413 40.5076 34.6512C40.4089 33.9117 40.2485 33.6792 40.1198 33.5495L40.1154 33.545C39.9885 33.4166 39.7599 33.2551 39.0292 33.1556C38.2471 33.0492 37.183 33.0465 35.5391 33.0465H19.1816V45.5814ZM7.20647 14.8139C5.63347 14.8139 4.64433 14.8186 3.95435 14.9208C3.63046 14.9688 3.47055 15.0268 3.40132 15.061C3.3957 15.0638 3.38992 15.0656 3.38589 15.0677C3.38538 15.072 3.38635 15.0773 3.38589 15.0833C3.38009 15.1584 3.38513 15.3263 3.46081 15.6463C3.54122 15.9862 3.67169 16.3874 3.8552 16.886L4.56908 18.7177V18.7222L4.9084 19.5768C5.33525 20.6483 5.60692 21.3252 5.86685 21.8159C6.10647 22.268 6.2637 22.416 6.38463 22.4991C6.50563 22.5808 6.70062 22.6728 7.20206 22.7284C7.75032 22.789 8.47568 22.7907 9.62132 22.7907H16.3283C17.4726 22.7907 18.1956 22.789 18.7431 22.7284C19.2483 22.6724 19.4416 22.5803 19.5606 22.4991L19.6575 22.4212C19.7642 22.3235 19.8982 22.1557 20.0783 21.8159C20.3382 21.3253 20.6103 20.6481 21.0368 19.5746V19.5724L21.3783 18.7177L22.09 16.886C22.2735 16.3873 22.4062 15.9862 22.4866 15.6463C22.5617 15.3284 22.5671 15.1606 22.5615 15.0855C22.5611 15.0799 22.5598 15.074 22.5593 15.0699C22.5551 15.0676 22.5499 15.064 22.5439 15.061C22.4747 15.0267 22.3148 14.9691 21.9908 14.9208C21.3019 14.8182 20.3139 14.814 18.7431 14.8139H7.20647ZM41.2391 9.49909C41.9037 8.95155 42.8846 8.99147 43.5042 9.61705C44.1234 10.2429 44.163 11.2338 43.6209 11.905L43.5042 12.0341L41.7437 13.8124V21.0814C41.7437 22.0252 40.9858 22.7903 40.0515 22.7907C39.1172 22.7904 38.3594 22.0252 38.3594 21.0814V17.231L34.4793 21.1504C34.1621 21.4706 33.7313 21.651 33.2829 21.6512H31.0267C30.0924 21.6509 29.3345 20.8857 29.3345 19.9419C29.3345 18.998 30.0924 18.2328 31.0267 18.2326H32.5822L35.9666 14.8139H32.1548C31.2205 14.8137 30.4626 14.0485 30.4626 13.1046C30.4626 12.1608 31.2205 11.3956 32.1548 11.3953H39.3509L41.1113 9.61705L41.2391 9.49909ZM12.1199 7.97674C10.4813 7.97674 9.35073 8.05479 8.59016 8.22156C8.23484 8.29955 8.02898 8.38348 7.91374 8.44413C7.93225 8.56258 7.9794 8.75382 8.10102 9.04506C8.3403 9.61774 8.75854 10.3582 9.40319 11.3953H16.5508C17.1955 10.3581 17.6137 9.61776 17.853 9.04506C17.9745 8.75412 18.0195 8.56259 18.038 8.44413C17.9225 8.38357 17.7174 8.29918 17.3638 8.22156C16.6034 8.05472 15.4728 7.97676 13.8341 7.97674H12.1199Z" fill="white"/>
</svg>
