<svg width="33" height="32" viewBox="0 0 33 32" fill="none" xmlns="http://www.w3.org/2000/svg">
<path d="M16.3791 32C7.56039 32 0.411865 24.8368 0.411865 16C0.411865 7.1632 7.56039 0 16.3791 0C25.1978 0 32.3463 7.1648 32.3463 16C32.3463 24.8352 25.1978 32 16.3791 32ZM16.3791 8C15.9556 8 15.5495 8.16857 15.25 8.46863C14.9506 8.76869 14.7824 9.17565 14.7824 9.6V17.6C14.7824 18.0243 14.9506 18.4313 15.25 18.7314C15.5495 19.0314 15.9556 19.2 16.3791 19.2C16.8026 19.2 17.2087 19.0314 17.5081 18.7314C17.8076 18.4313 17.9758 18.0243 17.9758 17.6V9.6C17.9758 9.17565 17.8076 8.76869 17.5081 8.46863C17.2087 8.16857 16.8026 8 16.3791 8ZM16.3791 24C16.8026 24 17.2087 23.8314 17.5081 23.5314C17.8076 23.2313 17.9758 22.8243 17.9758 22.4C17.9758 21.9757 17.8076 21.5687 17.5081 21.2686C17.2087 20.9686 16.8026 20.8 16.3791 20.8C15.9556 20.8 15.5495 20.9686 15.25 21.2686C14.9506 21.5687 14.7824 21.9757 14.7824 22.4C14.7824 22.8243 14.9506 23.2313 15.25 23.5314C15.5495 23.8314 15.9556 24 16.3791 24Z" fill="#DB2020"/>
</svg>
