<svg width="18" height="15" viewBox="0 0 18 15" fill="none" xmlns="http://www.w3.org/2000/svg">
<path d="M7.20634 14.7832L3.29558e-07 7.53941L7.20634 0.295572C7.27143 0.210105 7.35411 0.13962 7.4488 0.088888C7.5435 0.038156 7.64798 0.00836153 7.75519 0.00152138C7.8624 -0.00531877 7.96982 0.0109555 8.07019 0.049242C8.17056 0.0875285 8.26154 0.146933 8.33696 0.223435C8.41237 0.299937 8.47047 0.39175 8.50732 0.492658C8.54417 0.593566 8.55891 0.701213 8.55054 0.808312C8.54217 0.915411 8.51088 1.01946 8.4588 1.11342C8.40672 1.20738 8.33506 1.28905 8.24868 1.3529L2.85704 6.78953L17.2022 6.78953C17.4011 6.78953 17.5919 6.86853 17.7325 7.00916C17.8731 7.14979 17.9521 7.34053 17.9521 7.53941C17.9521 7.73829 17.8731 7.92902 17.7325 8.06965C17.5919 8.21028 17.4011 8.28929 17.2022 8.28929L2.85704 8.28929L8.24868 13.7259C8.38889 13.8671 8.46726 14.0582 8.46656 14.2572C8.46586 14.4562 8.38613 14.6468 8.24493 14.787C8.10372 14.9272 7.9126 15.0056 7.71361 15.0049C7.51462 15.0042 7.32406 14.9245 7.18385 14.7832L7.20634 14.7832Z" fill="white"/>
</svg>
