<svg width="28" height="33" viewBox="0 0 28 33" fill="none" xmlns="http://www.w3.org/2000/svg">
<path d="M0.898812 13.3454L13.9335 0.499999L26.9681 13.3454C27.1219 13.4615 27.2488 13.6088 27.3401 13.7776C27.4313 13.9464 27.485 14.1327 27.4973 14.3238C27.5096 14.5149 27.4803 14.7064 27.4114 14.8853C27.3425 15.0642 27.2356 15.2264 27.0979 15.3608C26.9603 15.4952 26.7951 15.5988 26.6135 15.6645C26.4319 15.7301 26.2382 15.7564 26.0455 15.7415C25.8528 15.7266 25.6656 15.6708 25.4965 15.578C25.3274 15.4851 25.1805 15.3574 25.0656 15.2034L15.2828 5.59273L15.2828 31.1633C15.2828 31.5178 15.1407 31.8578 14.8876 32.1085C14.6346 32.3592 14.2913 32.5 13.9335 32.5C13.5756 32.5 13.2324 32.3592 12.9793 32.1085C12.7263 31.8578 12.5841 31.5178 12.5841 31.1633L12.5841 5.59273L2.80139 15.2034C2.5473 15.4534 2.20339 15.5931 1.84533 15.5918C1.48726 15.5905 1.14436 15.4484 0.892064 15.1967C0.639765 14.945 0.498738 14.6044 0.500003 14.2497C0.501269 13.895 0.644725 13.5553 0.898812 13.3053L0.898812 13.3454Z" fill="white"/>
</svg>
