<svg width="27" height="32" viewBox="0 0 27 32" fill="none" xmlns="http://www.w3.org/2000/svg">
<path d="M26.6012 19.1546L13.5665 32L0.531856 19.1546C0.378067 19.0385 0.251235 18.8912 0.159947 18.7224C0.068659 18.5536 0.0150465 18.3673 0.0027382 18.1762C-0.00957005 17.9851 0.0197142 17.7936 0.0886074 17.6147C0.157501 17.4358 0.264395 17.2736 0.402053 17.1392C0.539712 17.0048 0.704921 16.9012 0.886497 16.8355C1.06807 16.7699 1.26177 16.7436 1.45449 16.7585C1.6472 16.7734 1.83443 16.8292 2.0035 16.922C2.17257 17.0149 2.31953 17.1426 2.43443 17.2966L12.2172 26.9073L12.2172 1.33668C12.2172 0.982168 12.3593 0.642181 12.6124 0.391506C12.8654 0.140831 13.2087 1.90735e-06 13.5665 1.90735e-06C13.9244 1.90735e-06 14.2676 0.140831 14.5207 0.391506C14.7737 0.642181 14.9159 0.982168 14.9159 1.33668L14.9159 26.9073L24.6986 17.2966C24.9527 17.0466 25.2966 16.9069 25.6547 16.9082C26.0127 16.9095 26.3556 17.0516 26.6079 17.3033C26.8602 17.555 27.0013 17.8956 27 18.2503C26.9987 18.605 26.8553 18.9447 26.6012 19.1947V19.1546Z" fill="white"/>
</svg>
