<svg width="34" height="34" viewBox="0 0 34 34" fill="none" xmlns="http://www.w3.org/2000/svg">
<path d="M17 0C21.5087 0 25.8327 1.79107 29.0208 4.97918C32.2089 8.1673 34 12.4913 34 17C34 21.5087 32.2089 25.8327 29.0208 29.0208C25.8327 32.2089 21.5087 34 17 34C12.4913 34 8.1673 32.2089 4.97918 29.0208C1.79107 25.8327 0 21.5087 0 17C0 12.4913 1.79107 8.1673 4.97918 4.97918C8.1673 1.79107 12.4913 0 17 0ZM17 1.78947C12.9659 1.78947 9.09706 3.39201 6.24453 6.24453C3.39201 9.09706 1.78947 12.9659 1.78947 17C1.78947 21.0341 3.39201 24.9029 6.24453 27.7555C9.09706 30.608 12.9659 32.2105 17 32.2105C18.9975 32.2105 20.9754 31.8171 22.8208 31.0527C24.6662 30.2883 26.343 29.1679 27.7555 27.7555C29.1679 26.343 30.2883 24.6662 31.0527 22.8208C31.8171 20.9754 32.2105 18.9975 32.2105 17C32.2105 12.9659 30.608 9.09706 27.7555 6.24453C24.9029 3.39201 21.0341 1.78947 17 1.78947ZM16.1053 7.15789H17.8947V16.8568L26.3053 21.7063L25.4105 23.2632L16.1053 17.8947V7.15789Z" fill="white"/>
</svg>
