<svg width="28" height="21" viewBox="0 0 28 21" fill="none" xmlns="http://www.w3.org/2000/svg">
<path d="M20.125 15.75C19.8929 15.75 19.6704 15.8422 19.5063 16.0063C19.3422 16.1704 19.25 16.3929 19.25 16.625C19.25 16.8571 19.3422 17.0796 19.5063 17.2437C19.6704 17.4078 19.8929 17.5 20.125 17.5H23.625C23.8571 17.5 24.0796 17.4078 24.2437 17.2437C24.4078 17.0796 24.5 16.8571 24.5 16.625C24.5 16.3929 24.4078 16.1704 24.2437 16.0063C24.0796 15.8422 23.8571 15.75 23.625 15.75H20.125ZM0 4.8125C0 3.53615 0.50703 2.31207 1.40955 1.40955C2.31207 0.50703 3.53615 0 4.8125 0H23.1875C24.4639 0 25.6879 0.50703 26.5905 1.40955C27.493 2.31207 28 3.53615 28 4.8125V16.1875C28 17.4639 27.493 18.6879 26.5905 19.5905C25.6879 20.493 24.4639 21 23.1875 21H4.8125C3.53615 21 2.31207 20.493 1.40955 19.5905C0.50703 18.6879 0 17.4639 0 16.1875V4.8125ZM4.8125 1.75C4.00027 1.75 3.22132 2.07266 2.64699 2.64699C2.07266 3.22132 1.75 4.00027 1.75 4.8125V7H26.25V4.8125C26.25 4.00027 25.9273 3.22132 25.353 2.64699C24.7787 2.07266 23.9997 1.75 23.1875 1.75H4.8125ZM26.25 8.75H1.75V16.1875C1.75 17.878 3.122 19.25 4.8125 19.25H23.1875C23.9997 19.25 24.7787 18.9273 25.353 18.353C25.9273 17.7787 26.25 16.9997 26.25 16.1875V8.75Z" fill="white"/>
</svg>
