<svg width="25" height="26" viewBox="0 0 25 26" fill="none" xmlns="http://www.w3.org/2000/svg">
<path d="M23.3624 16.9474L20.9187 15.2368C21.3215 13.8158 21.3483 12.2763 20.9187 10.7368L23.3624 9.05263L21.4155 5.76316L18.6898 6.97368C17.6291 5.92105 16.2864 5.10526 14.7154 4.72368L14.4469 1.81579H10.5531L10.2846 4.72368C8.71361 5.10526 7.37091 5.92105 6.31019 6.97368L3.58452 5.76316L1.63761 9.05263L4.08132 10.7368C3.65165 12.2763 3.67851 13.8158 4.08132 15.2368L1.63761 16.9474L3.58452 20.2368L6.31019 19.0132C7.37091 20.0526 8.71361 20.8421 10.2846 21.25L10.5531 24.1842H14.4469L14.7154 21.25C16.2864 20.8421 17.6291 20.0526 18.6898 19.0132L21.4155 20.2368L23.3624 16.9474ZM15.1854 0.5C15.5479 0.5 15.8567 0.763158 15.8567 1.10526L16.0984 3.78947C17.1189 4.15789 18.0319 4.69737 18.8509 5.3421L21.3349 4.19737C21.6437 4.03947 22.0331 4.14474 22.2211 4.44737L24.9065 9.05263C25.0945 9.32895 24.987 9.71053 24.6917 9.90789L22.4494 11.4474C22.6239 12.5 22.6105 13.5395 22.4494 14.5526L24.6917 16.0921C24.987 16.2895 25.0945 16.6711 24.9065 16.9474L22.2211 21.5526C22.0331 21.8289 21.6437 21.9342 21.3349 21.7763L18.8509 20.6447C18.0319 21.2895 17.1189 21.8158 16.0984 22.2105L15.8567 24.8421C15.8567 25.2237 15.5479 25.5 15.1854 25.5H9.81461C9.63656 25.5 9.4658 25.4307 9.3399 25.3073C9.214 25.1839 9.14327 25.0166 9.14327 24.8421L8.90158 22.2105C7.88114 21.8158 6.96811 21.2895 6.14906 20.6447L3.66508 21.7763C3.35626 21.9342 2.96688 21.8289 2.7789 21.5526L0.0935169 16.9474C-0.0944601 16.6711 0.0129555 16.2895 0.308348 16.0921L2.55065 14.5526C2.38952 13.5395 2.3761 12.5 2.55065 11.4474L0.308348 9.90789C0.0129555 9.71053 -0.0944601 9.32895 0.0935169 9.05263L2.7789 4.44737C2.96688 4.14474 3.35626 4.03947 3.66508 4.19737L6.14906 5.3421C6.96811 4.69737 7.88114 4.15789 8.90158 3.78947L9.14327 1.10526C9.14327 0.763158 9.45209 0.5 9.81461 0.5H15.1854ZM12.5 8.39474C13.7464 8.39474 14.9417 8.87993 15.823 9.74359C16.7043 10.6072 17.1994 11.7786 17.1994 13C17.1994 14.2214 16.7043 15.3928 15.823 16.2564C14.9417 17.1201 13.7464 17.6053 12.5 17.6053C11.2536 17.6053 10.0583 17.1201 9.177 16.2564C8.29569 15.3928 7.80057 14.2214 7.80057 13C7.80057 11.7786 8.29569 10.6072 9.177 9.74359C10.0583 8.87993 11.2536 8.39474 12.5 8.39474ZM12.5 9.71053C11.6097 9.71053 10.7559 10.0571 10.1264 10.674C9.49692 11.2909 9.14327 12.1276 9.14327 13C9.14327 13.8724 9.49692 14.7091 10.1264 15.326C10.7559 15.9429 11.6097 16.2895 12.5 16.2895C13.3903 16.2895 14.2441 15.9429 14.8736 15.326C15.5031 14.7091 15.8567 13.8724 15.8567 13C15.8567 12.1276 15.5031 11.2909 14.8736 10.674C14.2441 10.0571 13.3903 9.71053 12.5 9.71053Z" fill="white"/>
</svg>
