<svg width="31" height="31" viewBox="0 0 31 31" fill="none" xmlns="http://www.w3.org/2000/svg">
<path d="M14.6389 23.25H16.3611V13.7778H14.6389V23.25ZM15.5 11.3271C15.8008 11.3271 16.0528 11.2254 16.2561 11.0222C16.4593 10.819 16.5603 10.567 16.5592 10.2662C16.558 9.96535 16.4564 9.71391 16.2543 9.51183C16.0523 9.30976 15.8008 9.20815 15.5 9.207C15.1992 9.20585 14.9477 9.30746 14.7457 9.51183C14.5436 9.7162 14.442 9.96822 14.4408 10.2679C14.4397 10.5676 14.5413 10.819 14.7457 11.0222C14.95 11.2254 15.2015 11.3271 15.5 11.3271ZM15.5052 31C13.3616 31 11.3466 30.5936 9.46017 29.7807C7.57376 28.9666 5.93248 27.8621 4.53633 26.4671C3.14018 25.0721 2.03509 23.4326 1.22106 21.5484C0.407019 19.6643 0 17.6499 0 15.5052C0 13.3604 0.407019 11.3454 1.22106 9.46017C2.03394 7.57376 3.13674 5.93248 4.52944 4.53633C5.92215 3.14018 7.56228 2.03509 9.44983 1.22106C11.3374 0.407019 13.3524 0 15.4948 0C17.6373 0 19.6523 0.407019 21.5398 1.22106C23.4262 2.03394 25.0675 3.13731 26.4637 4.53117C27.8598 5.92502 28.9649 7.56515 29.7789 9.45155C30.593 11.338 31 13.3524 31 15.4948C31 17.6373 30.5936 19.6523 29.7807 21.5398C28.9678 23.4274 27.8633 25.0687 26.4671 26.4637C25.071 27.8587 23.4314 28.9638 21.5484 29.7789C19.6655 30.5941 17.6511 31.0011 15.5052 31ZM15.5 29.2778C19.3463 29.2778 22.6042 27.9431 25.2736 25.2736C27.9431 22.6042 29.2778 19.3463 29.2778 15.5C29.2778 11.6537 27.9431 8.39583 25.2736 5.72639C22.6042 3.05694 19.3463 1.72222 15.5 1.72222C11.6537 1.72222 8.39583 3.05694 5.72639 5.72639C3.05694 8.39583 1.72222 11.6537 1.72222 15.5C1.72222 19.3463 3.05694 22.6042 5.72639 25.2736C8.39583 27.9431 11.6537 29.2778 15.5 29.2778Z" fill="white"/>
</svg>
