<svg width="210" height="40" viewBox="0 0 210 40" fill="none" xmlns="http://www.w3.org/2000/svg">
<path d="M119.763 33.1867C120.362 33.1867 120.892 33.324 121.353 33.599C121.822 33.8661 122.191 34.2463 122.458 34.7399C122.725 35.2253 122.858 35.7878 122.858 36.4269C122.858 36.4674 122.854 36.5122 122.846 36.5608V36.6941H117.491C117.519 37.0859 117.62 37.4379 117.797 37.75C118.015 38.1141 118.315 38.4014 118.695 38.6118C119.083 38.8141 119.525 38.9151 120.018 38.9151C120.406 38.915 120.767 38.8466 121.098 38.7091C121.438 38.5716 121.729 38.361 121.972 38.0779L122.458 38.636C122.175 38.9758 121.818 39.2349 121.39 39.4129C120.969 39.5909 120.504 39.68 119.994 39.6801C119.331 39.6801 118.748 39.5423 118.246 39.2672C117.744 38.984 117.352 38.5995 117.069 38.114C116.786 37.6204 116.644 37.058 116.644 36.4269C116.644 35.7959 116.778 35.2377 117.045 34.7522C117.32 34.2667 117.692 33.8865 118.161 33.6114C118.639 33.3282 119.173 33.1867 119.763 33.1867ZM126.238 33.1867C126.651 33.1867 127.064 33.2433 127.477 33.3566C127.889 33.4617 128.229 33.6033 128.496 33.7813L128.12 34.4732C127.837 34.279 127.533 34.1412 127.209 34.0603C126.886 33.9713 126.562 33.927 126.238 33.927C125.664 33.927 125.239 34.028 124.964 34.2302C124.697 34.4244 124.564 34.6754 124.564 34.9829C124.564 35.2255 124.636 35.4158 124.782 35.5533C124.936 35.6908 125.134 35.7998 125.377 35.8807C125.627 35.9535 125.899 36.0144 126.19 36.063C126.489 36.1115 126.785 36.1724 127.076 36.2452C127.375 36.3099 127.647 36.4029 127.889 36.5242C128.14 36.6375 128.338 36.8036 128.484 37.0221C128.638 37.2324 128.715 37.5114 128.715 37.8592C128.715 38.2313 128.609 38.555 128.399 38.8301C128.197 39.0971 127.897 39.3075 127.501 39.4613C127.112 39.6069 126.639 39.6801 126.081 39.6801C125.555 39.6801 125.057 39.6069 124.588 39.4613C124.119 39.3075 123.751 39.1174 123.484 38.8909L123.872 38.2113C124.131 38.4055 124.462 38.5753 124.867 38.721C125.272 38.8585 125.697 38.9274 126.142 38.9274C126.748 38.9274 127.185 38.8344 127.452 38.6484C127.719 38.4542 127.853 38.1989 127.853 37.8834C127.853 37.6488 127.776 37.4666 127.622 37.3371C127.477 37.1996 127.282 37.0986 127.04 37.0339C126.797 36.9611 126.526 36.9002 126.227 36.8517C125.927 36.8031 125.628 36.7465 125.328 36.6818C125.037 36.617 124.77 36.5241 124.527 36.4027C124.284 36.2733 124.086 36.0992 123.933 35.8807C123.787 35.6623 123.714 35.3711 123.714 35.0071C123.714 34.6592 123.811 34.3477 124.005 34.0727C124.199 33.7976 124.483 33.5829 124.855 33.4292C125.235 33.2674 125.696 33.1867 126.238 33.1867ZM0 3.77723C0.9297 7.59753 2.41214 11.3516 4.47742 14.9288C16.1456 35.1384 41.9877 42.0628 62.1974 30.3948C70.6872 25.4933 76.832 18.0901 80.2395 9.65428C77.4477 19.617 70.9104 28.5387 61.2423 34.1206C41.6125 45.4538 16.5121 38.7281 5.17871 19.0985C2.36798 14.2302 0.667852 9.02508 0 3.77723ZM94.7627 39.6193H93.8159L92.8005 37.3495H88.0589L87.0435 39.6193H86.1086L89.9929 31.1233H90.8789L94.7627 39.6193ZM96.6053 39.6193H95.7435V33.2469H96.6053V39.6193ZM101.964 34.0238H101.867C101.835 34.0157 101.803 34.0119 101.77 34.0119C101.099 34.0119 100.573 34.2181 100.192 34.6307C99.812 35.0353 99.6219 35.6138 99.6219 36.3662V39.6193H98.7601V33.2469H99.5853V34.4781C99.7676 34.091 100.038 33.7897 100.399 33.5748C100.819 33.3159 101.341 33.1867 101.964 33.1867V34.0238ZM104.156 39.6193H103.294V30.6131H104.156V39.6193ZM107.173 39.6193H106.311V33.2469H107.173V39.6193ZM112.58 33.1867C113.098 33.1867 113.552 33.2876 113.94 33.4899C114.337 33.6841 114.644 33.9837 114.862 34.3882C115.089 34.7928 115.202 35.3024 115.202 35.9173V39.6193H114.341V36.0022C114.341 35.3306 114.17 34.8249 113.83 34.485C113.499 34.1372 113.03 33.9631 112.423 33.963C111.97 33.963 111.573 34.0564 111.233 34.2426C110.902 34.4206 110.642 34.6834 110.456 35.0313C110.278 35.3711 110.19 35.7839 110.19 36.2694V39.6193H109.328V33.2469H110.153V34.41C110.354 34.0704 110.632 33.7957 110.991 33.5872C111.436 33.3202 111.966 33.1867 112.58 33.1867ZM88.3848 36.6215H92.4746L90.4295 32.0513L88.3848 36.6215ZM119.763 33.927C119.326 33.927 118.934 34.028 118.586 34.2302C118.238 34.4325 117.967 34.7156 117.773 35.0797C117.618 35.3698 117.526 35.6937 117.494 36.0506H122.033C122.002 35.6924 121.906 35.3686 121.742 35.0797C121.548 34.7156 121.28 34.4325 120.941 34.2302C120.601 34.0279 120.208 33.927 119.763 33.927ZM60.4175 2.05857C62.82 0.774277 63.2355 0.684999 66.1874 0.817966C70.0799 0.99363 70.878 1.56636 70.447 3.8765C70.2319 5.02908 69.4645 6.11408 67.4068 8.17563C64.3596 11.2292 51.7327 21.6063 48.052 24.0822C42.449 27.8512 33.563 31.4431 28.4948 32.0167C27.8728 31.8122 27.2556 31.592 26.6438 31.3574L26.9342 31.1203C27.7173 30.4808 30.7312 27.9532 33.6325 25.504C38.7536 21.1813 41.2763 19.6098 38.5435 22.445C37.7597 23.1523 36.1044 24.6489 35.7542 24.9766C35.6854 25.0409 35.5986 25.1128 35.5038 25.1919C34.9946 25.6167 34.2445 26.2431 34.7022 26.9363C35.2686 27.1694 36.2909 26.4268 36.8555 26.1678C37.7275 25.5414 39.4417 24.2302 39.9412 23.5607C40.4406 22.8911 40.4024 22.6205 40.7748 21.9111C41.1472 21.2018 41.1073 21.0283 41.0652 20.7782C41.0228 20.528 39.8885 20.0717 38.3248 19.541C34.9964 18.4122 34.9212 18.358 35.5774 17.5631C36.0188 17.0284 36.0201 16.9785 34.8282 17.4307C33.7112 17.8545 32.6118 17.5852 24.5098 14.9011C16.4301 12.2243 13.8165 11.1221 15.4952 11.0993C15.7953 11.0958 21.5546 11.4063 28.2962 11.7898L40.558 12.4871L41.5957 11.5073C42.7629 10.4045 45.0106 10.1874 46.0746 11.0746C46.8129 11.6911 46.962 13.8142 46.2953 14.2285C46.0558 14.3771 45.3874 14.3802 44.8103 14.2344C43.8988 14.0041 43.782 13.7859 43.9233 12.5701C44.067 11.3323 44.0005 11.2166 43.3479 11.5675C42.5991 11.971 42.3498 13.8029 42.9256 14.67C43.973 16.2476 46.869 16.3552 47.3492 14.835C47.5173 14.3023 47.9729 14.0074 48.6274 14.0072C49.5516 14.0072 49.6001 14.092 49.1568 14.9392C48.1044 16.9514 46.0522 19.7116 43.8684 22.0524C42.6103 23.4011 41.8591 24.3484 42.1987 24.1582C43.9029 23.2016 46.654 20.781 52.0874 15.4582C55.3732 12.2389 59.2784 8.74021 60.7657 7.68226C63.4998 5.73766 68.3145 3.23624 69.3244 3.23546C70.2444 3.23459 69.6005 2.20878 68.5866 2.05955C68.0647 1.98304 66.5337 2.32543 65.1848 2.81962C62.275 3.88666 61.4885 3.60446 64.0781 2.42304C65.8131 1.63134 65.8381 1.59593 64.6549 1.59137C62.811 1.58401 58.476 3.98341 56.3989 5.77493L53.7918 7.99982C53.3526 8.33531 52.7534 8.83617 51.9378 9.53081C50.5474 10.7142 49.1035 11.9383 48.7291 12.2505C48.3323 12.5815 47.9485 12.6545 47.8075 12.4259C47.457 11.8465 57.3999 3.67161 60.4175 2.05857ZM96.1806 30.6131C96.3585 30.6132 96.5082 30.6698 96.6295 30.783C96.7509 30.8963 96.8112 31.0383 96.8112 31.2082C96.8112 31.3861 96.7508 31.5358 96.6295 31.6571C96.5163 31.7785 96.3666 31.8393 96.1806 31.8394C96.0026 31.8394 95.8525 31.7785 95.7312 31.6571C95.6098 31.5358 95.5494 31.39 95.5494 31.2201C95.5494 31.0502 95.6098 30.9086 95.7312 30.7953C95.8525 30.674 96.0026 30.6131 96.1806 30.6131ZM106.748 30.6131C106.926 30.6131 107.075 30.6698 107.197 30.783C107.318 30.8963 107.379 31.0383 107.379 31.2082C107.379 31.3861 107.318 31.5358 107.197 31.6571C107.084 31.7785 106.934 31.8394 106.748 31.8394C106.57 31.8394 106.42 31.7784 106.299 31.6571C106.178 31.5358 106.117 31.39 106.117 31.2201C106.117 31.0502 106.178 30.9086 106.299 30.7953C106.42 30.674 106.57 30.6131 106.748 30.6131ZM18.9522 27.4163C19.8238 27.1656 21.1587 27.1892 24.329 27.439L29.166 27.8203L27.5875 29.1927C27.4852 29.2817 27.3903 29.3657 27.3016 29.4441C26.8858 29.8118 26.6 30.0644 26.2669 30.2002C25.6921 30.4345 24.9755 30.3198 23.203 29.8516C21.7425 29.1294 20.3227 28.3165 18.9522 27.4163ZM64.3359 23.373C64.7866 22.92 65.3435 23.2931 66.5504 24.9425C65.7323 25.6102 64.8825 26.2501 64.0015 26.8597C63.9477 26.8367 63.8932 26.814 63.839 26.7906L59.8002 25.0418L61.9342 24.342C63.1079 23.9571 64.1885 23.521 64.3359 23.373ZM26.0353 18.662C26.624 18.2085 27.1533 18.5724 29.9458 21.3545L33.1747 24.5716L31.8314 25.711C31.0923 26.3377 29.9947 26.8502 29.3926 26.8503C28.3936 26.8503 28.1708 26.5176 26.8265 23.0184C25.4801 19.513 25.4126 19.1412 26.0353 18.662ZM98.1264 9.87109H101.103V0.77253H107.593V9.87109H110.436L115.22 0.77253H122.144L115.888 11.9118L122.545 24.1879H114.918L110.369 15.2231H107.593V24.1879H101.103V15.2231H98.3274L93.7448 24.1879H86.0844L92.7413 11.9118L86.4859 0.77253H93.4436L98.1264 9.87109ZM138.755 14.2868L146.783 0.77253H152.235L152.302 24.1879H146.181L146.147 11.7779L140.127 21.8795H137.183L131.162 12.0456V24.1879H125.074V0.77253H130.526L138.755 14.2868ZM160.573 8.4117H163.234C168.813 8.41171 173.696 9.40831 173.696 16.3166C173.696 23.2246 168.813 24.1879 163.234 24.1879H154.831V0.77253H160.573V8.4117ZM181.966 24.1879H176.25V0.77253H181.966V24.1879ZM196.804 7.09455L200.952 0.739441H208.646L200.952 11.9448L209.314 24.1879H201.52L196.804 17.2638L192.121 24.1879H184.494L192.823 12.2461L185.03 0.739441H192.623L196.804 7.09455ZM58.0623 17.1902C59.4944 15.9325 59.8543 15.8478 60.1765 16.6924C60.3508 17.1481 60.6053 17.2017 61.1662 16.8998C63.3426 15.7286 66.0969 17.0696 66.097 19.3005C66.097 20.9113 65.0404 22.2507 63.0548 23.1572C60.4841 24.3312 58.1495 24.1797 55.5228 22.6687L53.2949 21.3871L55.0605 19.8314C56.0316 18.9755 57.3824 17.7873 58.0623 17.1902ZM62.5016 17.3216C61.1632 17.3219 61.2123 19.9702 62.5668 20.8631C63.4114 21.4195 63.7195 21.4387 64.524 20.9851L65.4787 20.4468L64.5556 20.3061C63.4701 20.1398 62.3567 18.717 62.6696 17.8955C62.7902 17.5799 62.7145 17.3218 62.5016 17.3216ZM160.573 18.9993H163.234C167.053 18.9993 168.348 18.2806 168.348 16.3166C168.348 14.515 167.053 13.7702 163.234 13.7702H160.573V18.9993Z" fill="white"/>
</svg>
