<svg width="120" height="108" viewBox="0 0 120 108" fill="none" xmlns="http://www.w3.org/2000/svg">
<path d="M74.5986 100.059C75.3167 100.059 75.9528 100.223 76.5059 100.553C77.0685 100.873 77.5099 101.329 77.8301 101.921C78.1503 102.503 78.3105 103.178 78.3105 103.945C78.3105 103.993 78.3056 104.047 78.2959 104.105V104.265H71.873C71.9072 104.735 72.0287 105.157 72.2402 105.531C72.5022 105.968 72.8615 106.312 73.3174 106.565C73.7831 106.807 74.3124 106.929 74.9043 106.929C75.37 106.929 75.8024 106.847 76.2002 106.682C76.6076 106.517 76.957 106.264 77.248 105.925L77.8301 106.594C77.4906 107.001 77.0638 107.312 76.5498 107.526C76.0452 107.739 75.4863 107.846 74.875 107.846C74.0795 107.846 73.3808 107.681 72.7793 107.351C72.1777 107.011 71.7068 106.55 71.3672 105.968C71.0276 105.376 70.8574 104.701 70.8574 103.945C70.8574 103.188 71.0177 102.518 71.3379 101.936C71.6678 101.354 72.1149 100.898 72.6777 100.568C73.2501 100.228 73.8905 100.059 74.5986 100.059ZM82.3643 100.059C82.8592 100.059 83.3547 100.126 83.8496 100.262C84.3445 100.388 84.753 100.558 85.0732 100.772L84.6211 101.602C84.2815 101.369 83.9174 101.204 83.5293 101.107C83.1412 101 82.7524 100.947 82.3643 100.947C81.6758 100.947 81.1668 101.067 80.8369 101.31C80.5167 101.543 80.3564 101.844 80.3564 102.213C80.3566 102.504 80.4436 102.732 80.6182 102.897C80.8024 103.062 81.0402 103.192 81.3311 103.289C81.6319 103.377 81.9573 103.45 82.3066 103.508C82.6657 103.566 83.0198 103.639 83.3691 103.727C83.7282 103.804 84.0536 103.916 84.3447 104.062C84.6454 104.198 84.883 104.397 85.0576 104.658C85.2419 104.911 85.3349 105.245 85.335 105.662C85.335 106.109 85.2082 106.497 84.9561 106.826C84.7135 107.147 84.3544 107.4 83.8789 107.584C83.4131 107.759 82.8453 107.846 82.1758 107.846C81.545 107.846 80.9476 107.759 80.3848 107.584C79.8221 107.4 79.3807 107.171 79.0605 106.9L79.5264 106.084C79.8368 106.317 80.2347 106.521 80.7197 106.696C81.205 106.861 81.7153 106.944 82.249 106.944C82.9764 106.944 83.5001 106.832 83.8203 106.609C84.1405 106.376 84.3007 106.07 84.3008 105.692C84.3007 105.41 84.2087 105.192 84.0244 105.036C83.8498 104.871 83.6162 104.75 83.3252 104.672C83.0343 104.585 82.7093 104.512 82.3506 104.454C81.9916 104.396 81.6324 104.328 81.2734 104.25C80.9241 104.173 80.6036 104.061 80.3125 103.915C80.0214 103.76 79.784 103.551 79.5996 103.289C79.425 103.027 79.3369 102.678 79.3369 102.241C79.337 101.824 79.4538 101.451 79.6865 101.121C79.9194 100.791 80.2596 100.533 80.7061 100.349C81.1619 100.155 81.7146 100.059 82.3643 100.059ZM44.6143 107.774H43.4795L42.2617 105.051H36.5742L35.3564 107.774H34.2354L38.8936 97.5832H39.957L44.6143 107.774ZM46.8242 107.774H45.791V100.131H46.8242V107.774ZM53.252 101.063H53.1357C53.0969 101.053 53.0574 101.048 53.0186 101.048C52.2134 101.048 51.583 101.296 51.127 101.79C50.671 102.275 50.4425 102.969 50.4424 103.871V107.774H49.4092V100.131H50.3984V101.608C50.6171 101.143 50.9417 100.781 51.374 100.524C51.8786 100.213 52.5048 100.059 53.252 100.059V101.063ZM55.8809 107.774H54.8467V96.9719H55.8809V107.774ZM59.498 107.774H58.4648V100.131H59.498V107.774ZM65.9844 100.059C66.6054 100.059 67.1495 100.179 67.6152 100.422C68.0904 100.655 68.4588 101.014 68.7207 101.499C68.9924 101.984 69.1279 102.596 69.1279 103.333V107.774H68.0947V103.435C68.0946 102.63 67.8909 102.023 67.4834 101.615C67.0856 101.198 66.5225 100.99 65.7949 100.989C65.2516 100.99 64.7757 101.101 64.3682 101.324C63.9704 101.538 63.6597 101.853 63.4365 102.271C63.2231 102.678 63.1172 103.174 63.1172 103.756V107.774H62.083V100.131H63.0732V101.526C63.3142 101.118 63.6475 100.788 64.0771 100.538C64.6109 100.218 65.2469 100.059 65.9844 100.059ZM36.9658 104.178H41.8701L39.418 98.6965L36.9658 104.178ZM74.5986 100.947C74.0747 100.947 73.6037 101.067 73.1865 101.31C72.7694 101.552 72.4438 101.892 72.2109 102.328C72.0253 102.676 71.9156 103.065 71.8779 103.493H77.3213C77.2842 103.064 77.1686 102.675 76.9717 102.328C76.7388 101.892 76.4181 101.552 76.0107 101.31C75.6033 101.067 75.1322 100.947 74.5986 100.947ZM46.3154 96.9719C46.5287 96.972 46.7081 97.0403 46.8535 97.176C46.999 97.3118 47.0713 97.482 47.0713 97.6858C47.0712 97.899 46.9989 98.0784 46.8535 98.2238C46.7178 98.3693 46.5384 98.4425 46.3154 98.4426C46.1019 98.4426 45.9219 98.3694 45.7764 98.2238C45.6308 98.0783 45.5586 97.9032 45.5586 97.6994C45.5587 97.4959 45.631 97.3264 45.7764 97.1906C45.9219 97.0451 46.1019 96.9719 46.3154 96.9719ZM58.9893 96.9719C59.2025 96.972 59.3819 97.0403 59.5273 97.176C59.6728 97.3118 59.7461 97.4821 59.7461 97.6858C59.746 97.899 59.6728 98.0784 59.5273 98.2238C59.3916 98.3693 59.2123 98.4425 58.9893 98.4426C58.7758 98.4426 58.5957 98.3693 58.4502 98.2238C58.3048 98.0783 58.2324 97.9031 58.2324 97.6994C58.2325 97.496 58.3049 97.3264 58.4502 97.1906C58.5957 97.0451 58.7758 96.9719 58.9893 96.9719ZM17.6221 80.0197H20.1543V72.2815H25.6738V80.0197H28.0918L32.1602 72.2815H38.0498L32.7285 81.7551L38.3906 92.1965H31.9043L28.0352 84.5715H25.6738V92.1965H20.1543V84.5715H17.793L13.8955 92.1965H7.37988L13.042 81.7551L7.72168 72.2815H13.6387L17.6221 80.0197ZM52.1777 83.7756L59.0059 72.2815H63.6426L63.7002 92.1965H58.4932L58.4648 81.6418L53.3438 90.2326H50.8398L45.7197 81.8694V92.1965H40.541V72.2815H45.1787L52.1777 83.7756ZM70.7344 78.7785H72.9971C77.7428 78.7785 81.8955 79.6265 81.8955 85.5022C81.8952 91.3772 77.7426 92.1965 72.9971 92.1965H65.8506V72.2815H70.7344V78.7785ZM88.9297 92.1965H84.0684V72.2815H88.9297V92.1965ZM101.55 77.6584L105.078 72.2531H111.621L105.078 81.7834L112.19 92.1965H105.562L101.55 86.3069L97.5664 92.1965H91.0801L98.1641 82.0393L91.5352 72.2531H97.9932L101.55 77.6584ZM70.7344 87.7834H72.9971C76.2452 87.7834 77.3474 87.1723 77.3477 85.5022C77.3477 83.9699 76.2456 83.3362 72.9971 83.3362H70.7344V87.7834ZM0 4.47775C1.38538 10.1704 3.59439 15.7645 6.67188 21.0949C24.0593 51.2105 62.5689 61.5289 92.6846 44.1418C105.335 36.8378 114.492 25.806 119.569 13.2356C115.409 28.0814 105.668 41.3757 91.2607 49.6936C62.0093 66.5819 24.6054 56.56 7.7168 27.3088C3.52843 20.0543 0.995212 12.2978 0 4.47775ZM90.0322 1.91623C93.6119 0.00267506 94.2312 -0.130537 98.6299 0.0675968C104.43 0.329359 105.62 1.18304 104.978 4.62521C104.657 6.34267 103.513 7.9597 100.447 11.0315C95.9065 15.5817 77.0904 31.0461 71.6055 34.7356C63.2561 40.352 50.0144 45.704 42.4619 46.5588C41.535 46.2541 40.6148 45.926 39.7031 45.5764L40.1357 45.2229C41.3028 44.2699 45.7948 40.5033 50.1182 36.8537C57.749 30.4126 61.508 28.0709 57.4365 32.2951C56.2686 33.349 53.8015 35.5791 53.2793 36.0676C53.1769 36.1634 53.0476 36.271 52.9062 36.3889C52.1475 37.0219 51.0298 37.9556 51.7119 38.9885C52.556 39.3358 54.0796 38.229 54.9209 37.843C56.2203 36.9096 58.7741 34.9559 59.5186 33.9582C60.2627 32.9606 60.2059 32.5572 60.7607 31.5002C61.3156 30.4433 61.2561 30.1844 61.1934 29.8117C61.1299 29.4389 59.4403 28.7586 57.1104 27.968C52.1507 26.2859 52.0379 26.205 53.0156 25.0207C53.6734 24.224 53.6755 24.1496 51.8994 24.8235C50.235 25.4548 48.5966 25.0535 36.5234 21.0539C24.4841 17.0653 20.5892 15.423 23.0898 15.3889C23.5371 15.3836 32.1199 15.8457 42.166 16.4172L60.4375 17.4563L61.9844 15.9963C63.7237 14.3532 67.0727 14.0299 68.6582 15.3518C69.7585 16.2705 69.9808 19.4346 68.9873 20.052C68.6302 20.2733 67.6343 20.278 66.7744 20.0608C65.4162 19.7176 65.2426 19.392 65.4531 17.5803C65.6673 15.7361 65.5679 15.5635 64.5957 16.0862C63.48 16.6873 63.1081 19.4169 63.9658 20.7092C65.5266 23.0601 69.842 23.2207 70.5576 20.9553C70.8081 20.1615 71.4876 19.7221 72.4629 19.7219C73.8397 19.7219 73.9124 19.8485 73.252 21.1106C71.6838 24.1091 68.6252 28.222 65.3711 31.7102C63.4964 33.7198 62.3771 35.1321 62.8828 34.8488C65.4223 33.4233 69.5216 29.8157 77.6182 21.884C82.5145 17.0867 88.3345 11.8737 90.5508 10.2971C94.625 7.39932 101.8 3.6713 103.305 3.67014C104.675 3.66873 103.716 2.14058 102.205 1.91818C101.427 1.80417 99.1457 2.31457 97.1357 3.051C92.7999 4.64095 91.6276 4.21965 95.4863 2.4592C98.0718 1.27944 98.1089 1.22674 96.3457 1.21994C93.5978 1.2094 87.138 4.78481 84.043 7.45432L80.1582 10.7697C79.5039 11.2697 78.6109 12.0159 77.3955 13.051C75.324 14.8142 73.1727 16.6381 72.6143 17.1037C72.0231 17.5968 71.4512 17.7061 71.2412 17.3654C70.7189 16.5021 85.5354 4.31993 90.0322 1.91623ZM28.2422 39.7033C29.5409 39.3298 31.5302 39.3653 36.2539 39.7375L43.4619 40.3059L41.1094 42.3508C40.957 42.4832 40.8157 42.609 40.6836 42.7258C40.0642 43.2736 39.6378 43.6494 39.1416 43.8518C38.285 44.2008 37.2174 44.03 34.5762 43.3322C32.4 42.2561 30.2843 41.0447 28.2422 39.7033ZM95.8711 33.6779C96.5426 33.0036 97.3729 33.5597 99.1709 36.0168C97.9518 37.0118 96.6848 37.9658 95.3721 38.8742C95.292 38.84 95.2113 38.8056 95.1309 38.7707L89.1123 36.1653L92.292 35.1223C94.0409 34.5489 95.6515 33.8984 95.8711 33.6779ZM38.7969 26.6584C39.6742 25.9827 40.463 26.5246 44.624 30.6701L49.4355 35.4641L47.4336 37.1623C46.3322 38.0962 44.6969 38.8603 43.7998 38.8606C42.3111 38.8605 41.9789 38.3641 39.9756 33.1496C37.9694 27.9264 37.8689 27.3726 38.7969 26.6584ZM86.5225 24.4651C88.6562 22.5912 89.1928 22.4647 89.6729 23.7229C89.9325 24.4018 90.3116 24.4822 91.1475 24.0324C94.3905 22.2872 98.4948 24.2852 98.4951 27.6096C98.4951 30.0099 96.9206 32.0058 93.9619 33.3567C90.1314 35.1061 86.6523 34.8804 82.7383 32.6291L79.418 30.719L82.0488 28.4006C83.496 27.1252 85.5093 25.3547 86.5225 24.4651ZM93.1377 24.6613C91.1432 24.6618 91.2159 28.6081 93.2344 29.9387C94.493 30.7677 94.9524 30.7962 96.1514 30.1203L97.5742 29.3176L96.1982 29.1086C94.5806 28.8608 92.9214 26.7401 93.3877 25.5158C93.5674 25.0458 93.4547 24.6618 93.1377 24.6613Z" fill="white"/>
</svg>
