<svg width="35" height="17" viewBox="0 0 35 17" fill="none" xmlns="http://www.w3.org/2000/svg">
<path d="M8.41791 10.591C7.83764 10.591 7.34716 10.3893 6.94646 9.9858C6.54577 9.58233 6.34542 9.08707 6.34542 8.5C6.34542 7.91293 6.54577 7.41767 6.94646 7.0142C7.34716 6.61073 7.83764 6.40843 8.41791 6.4073C8.99819 6.40617 9.48867 6.60847 9.88937 7.0142C10.2901 7.41993 10.4904 7.9152 10.4904 8.5C10.4904 9.0848 10.2901 9.58007 9.88937 9.9858C9.48867 10.3915 8.99819 10.5938 8.41791 10.5927M8.41791 17C6.08671 17 4.10121 16.1721 2.4614 14.5163C0.821589 12.8605 0.00112354 10.8551 1.14999e-06 8.5C-0.00112124 6.14493 0.819345 4.14007 2.4614 2.4854C4.10345 0.830733 6.08896 0.00226667 8.41791 0C10.1464 0 11.7054 0.473167 13.0949 1.4195C14.4844 2.3647 15.4985 3.59153 16.1371 5.1H31.6328L35 8.5L29.6243 13.8618L26.742 11.6722L23.6998 13.9264L20.7047 11.9H16.1371C15.4974 13.3869 14.4833 14.6087 13.0949 15.5652C11.7065 16.5217 10.1475 17 8.41791 17ZM8.41791 15.3C10.0757 15.3 11.4899 14.7962 12.6605 13.7887C13.8312 12.7812 14.5809 11.5849 14.9098 10.2H21.2401L23.6476 11.8439L26.7757 9.5778L29.5048 11.6552L32.6295 8.5L30.9459 6.8H14.9098C14.5821 5.41393 13.8323 4.2177 12.6605 3.2113C11.4888 2.2049 10.0746 1.70113 8.41791 1.7C6.56597 1.7 4.9806 2.36583 3.66179 3.6975C2.34299 5.02917 1.68358 6.63 1.68358 8.5C1.68358 10.37 2.34299 11.9708 3.66179 13.3025C4.9806 14.6342 6.56597 15.3 8.41791 15.3Z" fill="white"/>
</svg>
