<svg width="14" height="13" viewBox="0 0 14 13" fill="none" xmlns="http://www.w3.org/2000/svg">
<path d="M1.61516 5.99777C1.33006 5.71456 1.10418 5.37744 0.950672 5.00606C0.797168 4.63468 0.719112 4.23646 0.721053 3.83461C0.721053 3.02186 1.04392 2.2424 1.61862 1.6677C2.19332 1.093 2.97278 0.770138 3.78553 0.770138C4.92479 0.770138 5.91984 1.39024 6.44621 2.31319H7.25379C7.52138 1.84383 7.90858 1.45376 8.37596 1.18271C8.84333 0.911655 9.37419 0.7693 9.91447 0.770138C10.7272 0.770138 11.5067 1.093 12.0814 1.6677C12.6561 2.2424 12.9789 3.02186 12.9789 3.83461C12.9789 4.67824 12.6184 5.45698 12.0848 5.99777L6.85 11.2254L1.61516 5.99777ZM12.5896 6.50972C13.2746 5.81751 13.7 4.88014 13.7 3.83461C13.7 2.83063 13.3012 1.86776 12.5912 1.15784C11.8813 0.447916 10.9185 0.0490853 9.91447 0.0490853C8.65263 0.0490853 7.535 0.66198 6.85 1.61377C6.50036 1.12814 6.03997 0.732872 5.50702 0.460755C4.97407 0.188637 4.38392 0.0475117 3.78553 0.0490853C2.78154 0.0490853 1.81868 0.447916 1.10875 1.15784C0.398831 1.86776 0 2.83063 0 3.83461C0 4.88014 0.425421 5.81751 1.11042 6.50972L6.85 12.2493L12.5896 6.50972Z" fill="white"/>
</svg>
