<svg width="33" height="26" viewBox="0 0 33 26" fill="none" xmlns="http://www.w3.org/2000/svg">
<path d="M5.21053 0H27.7895C29.1714 0 30.4967 0.547856 31.4739 1.52304C32.451 2.49823 33 3.82087 33 5.2V20.8C33 22.1791 32.451 23.5018 31.4739 24.477C30.4967 25.4521 29.1714 26 27.7895 26H5.21053C3.82861 26 2.50329 25.4521 1.52613 24.477C0.548965 23.5018 0 22.1791 0 20.8V5.2C0 3.82087 0.548965 2.49823 1.52613 1.52304C2.50329 0.547856 3.82861 0 5.21053 0ZM5.21053 1.73333C4.34211 1.73333 3.57789 2.028 2.98737 2.548L16.5 11.2667L30.0126 2.548C29.4221 2.028 28.6579 1.73333 27.7895 1.73333H5.21053ZM16.5 13.364L1.96263 3.952C1.82368 4.33333 1.73684 4.76667 1.73684 5.2V20.8C1.73684 21.7194 2.10282 22.6012 2.75426 23.2513C3.4057 23.9014 4.28925 24.2667 5.21053 24.2667H27.7895C28.7108 24.2667 29.5943 23.9014 30.2457 23.2513C30.8972 22.6012 31.2632 21.7194 31.2632 20.8V5.2C31.2632 4.76667 31.1763 4.33333 31.0374 3.952L16.5 13.364Z" fill="white"/>
</svg>
