<svg width="23" height="30" viewBox="0 0 23 30" fill="none" xmlns="http://www.w3.org/2000/svg">
<path d="M11.5 0C14.55 0 17.4755 1.26918 19.6321 3.5291C21.7888 5.78902 23 8.85456 23 12.0506C23 13.8433 22.2394 15.8274 21.2301 17.706C20.2059 19.6121 18.8536 21.5392 17.5208 23.2485C16.1849 24.9617 14.8518 26.4797 13.8539 27.567C13.3546 28.111 12.9376 28.5486 12.6449 28.8514C12.4986 29.0027 12.3829 29.1207 12.3035 29.2011C12.2638 29.2413 12.2321 29.2728 12.211 29.2939C12.2008 29.3042 12.1935 29.3126 12.1879 29.3181C12.1851 29.3209 12.1818 29.322 12.1802 29.3235L12.179 29.3262C12.1788 29.3264 12.1781 29.3268 11.5 28.5771L12.1777 29.3262L11.5 30L10.8223 29.3262L11.5 28.5771L10.821 29.3262L10.8198 29.3235C10.8182 29.322 10.8149 29.3209 10.8121 29.3181C10.8065 29.3126 10.7992 29.3042 10.789 29.2939C10.7679 29.2728 10.7362 29.2413 10.6965 29.2011C10.6171 29.1207 10.5014 29.0027 10.3551 28.8514C10.0624 28.5486 9.64538 28.111 9.14609 27.567C8.14816 26.4797 6.81511 24.9617 5.47919 23.2485C4.14644 21.5392 2.79408 19.6121 1.76992 17.706C0.760601 15.8274 0 13.8433 0 12.0506C0 8.85456 1.21119 5.78902 3.36786 3.5291C5.52453 1.26918 8.45001 0 11.5 0ZM11.5 2.06581C8.97287 2.06581 6.54867 3.11718 4.76172 4.98969C2.97477 6.86219 1.97143 9.40245 1.97143 12.0506C1.97143 13.3 2.52518 14.9028 3.48722 16.6933C4.43438 18.4561 5.71086 20.2809 7.00653 21.9425C8.29904 23.6001 9.5948 25.0741 10.5682 26.1347C10.929 26.5278 11.2458 26.8624 11.5 27.1286C11.7542 26.8624 12.071 26.5278 12.4318 26.1347C13.4052 25.0741 14.701 23.6001 15.9935 21.9425C17.2891 20.2809 18.5656 18.4561 19.5128 16.6933C20.4748 14.9028 21.0286 13.3 21.0286 12.0506L21.017 11.5556C20.9002 9.08771 19.9136 6.74521 18.2383 4.98969C16.563 3.23417 14.3275 2.2003 11.9723 2.07792L11.5 2.06581ZM11.5 9.64046C12.11 9.64046 12.6948 9.89456 13.1262 10.3465C13.5575 10.7985 13.8 11.4114 13.8 12.0506C13.8 12.6898 13.5575 13.3026 13.1262 13.7546C12.6948 14.2066 12.11 14.4607 11.5 14.4607C10.89 14.4607 10.3052 14.2066 9.87383 13.7546C9.4425 13.3026 9.2 12.6898 9.2 12.0506C9.2 11.4114 9.4425 10.7985 9.87383 10.3465C10.3052 9.89456 10.89 9.64046 11.5 9.64046Z" fill="white"/>
</svg>
