<svg width="20" height="25" viewBox="0 0 20 25" fill="none" xmlns="http://www.w3.org/2000/svg">
<path d="M17 14.2097C17.7957 14.2097 18.5587 14.5258 19.1213 15.0884C19.684 15.651 20 16.4141 20 17.2097V17.9247C20 21.5017 15.79 24.2097 10 24.2097C4.21001 24.2097 0 21.6427 0 17.9247V17.2097C0 16.4141 0.316071 15.651 0.878681 15.0884C1.44129 14.5258 2.20435 14.2097 3 14.2097H17ZM17 15.7097H3C2.62728 15.7097 2.2679 15.8485 1.99189 16.099C1.71589 16.3495 1.54303 16.6938 1.507 17.0647L1.5 17.2097V17.9247C1.5 20.5987 4.88901 22.7097 10 22.7097C14.926 22.7097 18.355 20.6047 18.496 18.0857L18.5 17.9247V17.2097C18.5 16.837 18.3613 16.4776 18.1108 16.2016C17.8603 15.9256 17.516 15.7528 17.145 15.7167L17 15.7097ZM10 0.209717C10.7879 0.209717 11.5682 0.364912 12.2961 0.66644C13.0241 0.967969 13.6855 1.40993 14.2427 1.96708C14.7998 2.52423 15.2418 3.18567 15.5433 3.91362C15.8448 4.64158 16 5.42179 16 6.20972C16 6.99766 15.8448 7.77787 15.5433 8.50583C15.2418 9.23378 14.7998 9.89522 14.2427 10.4524C13.6855 11.0095 13.0241 11.4515 12.2961 11.753C11.5682 12.0545 10.7879 12.2097 10 12.2097C8.40871 12.2097 6.88259 11.5776 5.75737 10.4524C4.63215 9.32715 4 7.80103 4 6.20972C4 4.61842 4.63215 3.0923 5.75737 1.96708C6.88259 0.841859 8.40871 0.209717 10 0.209717ZM10 1.70972C8.80654 1.70972 7.66194 2.18383 6.81803 3.02774C5.97411 3.87165 5.50001 5.01625 5.50001 6.20972C5.50001 7.4032 5.97411 8.54779 6.81803 9.39171C7.66194 10.2356 8.80654 10.7097 10 10.7097C11.1935 10.7097 12.3381 10.2356 13.182 9.39171C14.0259 8.54779 14.5 7.4032 14.5 6.20972C14.5 5.01625 14.0259 3.87165 13.182 3.02774C12.3381 2.18383 11.1935 1.70972 10 1.70972Z" fill="white"/>
</svg>
