<svg width="26" height="26" viewBox="0 0 26 26" fill="none" xmlns="http://www.w3.org/2000/svg">
<path d="M23.9474 26C24.4918 26 25.0139 25.7837 25.3988 25.3988C25.7837 25.0139 26 24.4918 26 23.9474V19.1579C26 18.6135 25.7837 18.0914 25.3988 17.7065C25.0139 17.3215 24.4918 17.1053 23.9474 17.1053C22.3463 17.1053 20.7726 16.8589 19.2674 16.3526C18.9075 16.239 18.5234 16.2262 18.1567 16.3154C17.79 16.4047 17.4548 16.5927 17.1874 16.8589L15.2168 18.8295C11.8125 16.9717 9.01459 14.1738 7.15684 10.7695L9.11368 8.81263C9.67474 8.27895 9.88 7.48526 9.63368 6.71895C9.14105 5.22737 8.89474 3.65368 8.89474 2.05263C8.89474 1.50824 8.67848 0.986145 8.29354 0.601202C7.90859 0.216259 7.3865 0 6.84211 0H2.05263C1.50824 0 0.986145 0.216259 0.601202 0.601202C0.216259 0.986145 0 1.50824 0 2.05263C0 15.2579 10.7421 26 23.9474 26ZM2.05263 1.36842H6.84211C7.02357 1.36842 7.1976 1.44051 7.32592 1.56882C7.45423 1.69714 7.52632 1.87117 7.52632 2.05263C7.52632 3.80421 7.8 5.51474 8.33368 7.14316C8.40211 7.33474 8.38842 7.60842 8.16947 7.82737L5.47368 10.5095C7.73158 14.9295 11.0432 18.2411 15.4768 20.5263L18.1453 17.8305C18.3368 17.6389 18.5968 17.5842 18.8432 17.6526C20.4853 18.2 22.1958 18.4737 23.9474 18.4737C24.1288 18.4737 24.3029 18.5458 24.4312 18.6741C24.5595 18.8024 24.6316 18.9764 24.6316 19.1579V23.9474C24.6316 24.1288 24.5595 24.3029 24.4312 24.4312C24.3029 24.5595 24.1288 24.6316 23.9474 24.6316C11.4947 24.6316 1.36842 14.5053 1.36842 2.05263C1.36842 1.87117 1.44051 1.69714 1.56882 1.56882C1.69714 1.44051 1.87117 1.36842 2.05263 1.36842Z" fill="white"/>
</svg>
