<svg width="36" height="33" viewBox="0 0 36 33" fill="none" xmlns="http://www.w3.org/2000/svg">
<path d="M23.4954 19.1053L14.4 33L10.8 33L15.3468 19.1053L5.6988 19.1053L2.7 24.3158L-9.63453e-08 24.3158L1.8 16.5L5.78667e-07 8.68421L2.7 8.68421L5.7006 13.8947L15.3486 13.8947L10.8 -1.11501e-06L14.4 -9.55727e-07L23.4954 13.8947L33.3 13.8947C34.0161 13.8947 34.7028 14.1692 35.2092 14.6578C35.7155 15.1464 36 15.809 36 16.5C36 17.191 35.7155 17.8536 35.2092 18.3422C34.7028 18.8308 34.0161 19.1053 33.3 19.1053L23.4954 19.1053Z" fill="white"/>
</svg>
