<svg width="26" height="26" viewBox="0 0 26 26" fill="none" xmlns="http://www.w3.org/2000/svg">
<path d="M21.2415 11.7037C21.2415 10.4515 20.9948 9.21149 20.5156 8.05458C20.0364 6.89754 19.3333 5.84607 18.4477 4.96048C17.5621 4.07487 16.5107 3.37189 15.3536 2.8926C14.3413 2.47328 13.2654 2.23188 12.1733 2.17807L11.7037 2.16668C10.4515 2.16671 9.21152 2.41343 8.05458 2.8926C7.04212 3.31197 6.11019 3.90229 5.29984 4.63659L4.96048 4.96048C3.17196 6.74901 2.16674 9.17435 2.16668 11.7037C2.16668 14.2331 3.1719 16.6591 4.96048 18.4477C6.74899 20.2362 9.17443 21.2415 11.7037 21.2415C14.2331 21.2415 16.6591 20.2363 18.4477 18.4477L18.7716 18.1084C19.5059 17.298 20.0962 16.3661 20.5156 15.3536C20.9949 14.1966 21.2415 12.9561 21.2415 11.7037ZM22.9082 11.7037C22.9082 13.175 22.6184 14.6323 22.0553 15.9917C21.5989 17.0937 20.9686 18.113 20.1925 19.0141L25.2561 24.0777L25.313 24.1411C25.58 24.4685 25.5612 24.951 25.2561 25.2561C24.951 25.5612 24.4685 25.58 24.1411 25.313L24.0777 25.2561L19.0141 20.1925C16.9879 21.9376 14.3961 22.9082 11.7037 22.9082C8.73232 22.9082 5.88237 21.7272 3.78128 19.6261C1.68028 17.525 0.5 14.6751 0.5 11.7037C0.500063 8.73232 1.68019 5.88237 3.78128 3.78128L3.97903 3.58922C4.97696 2.63923 6.14218 1.88074 7.41656 1.35287C8.77577 0.789891 10.2325 0.500031 11.7037 0.5L11.9796 0.503255C13.357 0.53715 14.7173 0.825006 15.9917 1.35287C17.3508 1.91588 18.5858 2.74104 19.6261 3.78128C20.6665 4.82166 21.4923 6.05723 22.0553 7.41656C22.6183 8.77573 22.9082 10.2326 22.9082 11.7037Z" fill="white"/>
</svg>
