<svg width="23" height="23" viewBox="0 0 23 23" fill="none" xmlns="http://www.w3.org/2000/svg">
<path d="M2.16667 1H20.8333C21.1428 1 21.4395 1.12487 21.6583 1.34713C21.8771 1.56939 22 1.87084 22 2.18517V4.06485C21.9999 4.37915 21.877 4.68056 21.6582 4.90277L14.1752 12.5044C13.9564 12.7267 13.8334 13.0281 13.8333 13.3424V20.8149C13.8333 20.995 13.7929 21.1728 13.7151 21.3347C13.6373 21.4966 13.5242 21.6383 13.3844 21.7492C13.2446 21.86 13.0818 21.937 12.9083 21.9743C12.7348 22.0116 12.5552 22.0083 12.3832 21.9645L10.0498 21.3719C9.79755 21.3077 9.57361 21.1597 9.4136 20.9514C9.25359 20.7431 9.16667 20.4865 9.16667 20.2223V13.3424C9.1666 13.0281 9.04364 12.7267 8.82483 12.5044L1.34183 4.90277C1.12303 4.68056 1.00007 4.37915 1 4.06485V2.18517C1 1.87084 1.12292 1.56939 1.34171 1.34713C1.5605 1.12487 1.85725 1 2.16667 1Z" stroke="white" stroke-width="1.5" stroke-linecap="round" stroke-linejoin="round"/>
</svg>
