<svg width="41" height="33" viewBox="0 0 41 33" fill="none" xmlns="http://www.w3.org/2000/svg">
<path d="M1.07895 12.1H0C0 12.3917 0.113675 12.6715 0.316017 12.8778C0.518358 13.0841 0.792793 13.2 1.07895 13.2V12.1ZM1.07895 20.9V19.8C0.792793 19.8 0.518358 19.9159 0.316017 20.1222C0.113675 20.3285 0 20.6083 0 20.9H1.07895ZM39.9211 12.1V13.2C40.2072 13.2 40.4816 13.0841 40.684 12.8778C40.8863 12.6715 41 12.3917 41 12.1H39.9211ZM39.9211 20.9H41C41 20.6083 40.8863 20.3285 40.684 20.1222C40.4816 19.9159 40.2072 19.8 39.9211 19.8V20.9ZM5.39474 2.2H16.1842V0H5.39474V2.2ZM16.1842 2.2H35.6053V0H16.1842V2.2ZM35.6053 30.8H16.1842V33H35.6053V30.8ZM16.1842 30.8H5.39474V33H16.1842V30.8ZM15.1053 1.1V31.9H17.2632V1.1H15.1053ZM3.36632 14.168C3.97247 14.7868 4.31294 15.6255 4.31294 16.5C4.31294 17.3745 3.97247 18.2132 3.36632 18.832L4.89411 20.3896C5.3952 19.8789 5.7927 19.2725 6.0639 18.6051C6.3351 17.9377 6.47469 17.2224 6.47469 16.5C6.47469 15.7776 6.3351 15.0623 6.0639 14.3949C5.7927 13.7275 5.3952 13.1211 4.89411 12.6104L3.36632 14.168ZM37.6337 18.832C37.0275 18.2132 36.6871 17.3745 36.6871 16.5C36.6871 15.6255 37.0275 14.7868 37.6337 14.168L36.1059 12.6104C35.6048 13.1211 35.2073 13.7275 34.9361 14.3949C34.6649 15.0623 34.5253 15.7776 34.5253 16.5C34.5253 17.2224 34.6649 17.9377 34.9361 18.6051C35.2073 19.2725 35.6048 19.8789 36.1059 20.3896L37.6337 18.832ZM1.07895 13.2C1.90974 13.2 2.73621 13.5212 3.36632 14.168L4.89411 12.6104C4.39306 12.0997 3.79825 11.6946 3.14364 11.4183C2.48903 11.142 1.78744 10.9999 1.07895 11V13.2ZM2.15789 12.1V5.5H0V12.1H2.15789ZM2.15789 27.5V20.9H0V27.5H2.15789ZM3.36632 18.832C2.73621 19.4788 1.90974 19.8 1.07895 19.8V22C2.45784 22 3.84105 21.4632 4.89411 20.3896L3.36632 18.832ZM37.6337 14.168C38.2638 13.5212 39.0903 13.2 39.9211 13.2V11C38.5422 11 37.159 11.5368 36.1059 12.6104L37.6337 14.168ZM38.8421 5.5V12.1H41V5.5H38.8421ZM38.8421 20.9V27.5H41V20.9H38.8421ZM39.9211 19.8C39.0903 19.8 38.2638 19.4788 37.6337 18.832L36.1059 20.3896C36.6069 20.9003 37.2018 21.3054 37.8564 21.5817C38.511 21.858 39.2126 22.0001 39.9211 22V19.8ZM5.39474 30.8C4.53627 30.8 3.71297 30.4523 3.10594 29.8335C2.49892 29.2146 2.15789 28.3752 2.15789 27.5H0C0 28.9587 0.568372 30.3576 1.58008 31.3891C2.59179 32.4205 3.96396 33 5.39474 33V30.8ZM35.6053 33C37.036 33 38.4082 32.4205 39.4199 31.3891C40.4316 30.3576 41 28.9587 41 27.5H38.8421C38.8421 28.3752 38.5011 29.2146 37.8941 29.8335C37.287 30.4523 36.4637 30.8 35.6053 30.8V33ZM35.6053 2.2C36.4637 2.2 37.287 2.54768 37.8941 3.16655C38.5011 3.78542 38.8421 4.62479 38.8421 5.5H41C41 4.04131 40.4316 2.64236 39.4199 1.61091C38.4082 0.579463 37.036 0 35.6053 0V2.2ZM5.39474 0C3.96396 0 2.59179 0.579463 1.58008 1.61091C0.568372 2.64236 0 4.04131 0 5.5H2.15789C2.15789 4.62479 2.49892 3.78542 3.10594 3.16655C3.71297 2.54768 4.53627 2.2 5.39474 2.2V0Z" fill="white"/>
</svg>
