<svg width="29" height="32" viewBox="0 0 29 32" fill="none" xmlns="http://www.w3.org/2000/svg">
<path d="M5.41886 32C4.49086 32 3.70095 31.6807 3.04914 31.0422C2.39733 30.4037 2.07143 29.6306 2.07143 28.7229V3.59163H0V1.56246H8.28571V0H20.7143V1.56246H29V3.59163H26.9286V28.7229C26.9286 29.6563 26.6096 30.4362 25.9716 31.0625C25.3336 31.6889 24.5368 32.0014 23.5811 32H5.41886ZM24.8571 3.59163H4.14286V28.7229C4.14286 29.0868 4.26231 29.3857 4.50121 29.6198C4.74012 29.8538 5.046 29.9708 5.41886 29.9708H23.5832C23.9008 29.9708 24.1929 29.841 24.4594 29.5812C24.726 29.3215 24.8585 29.0347 24.8571 28.7209V3.59163ZM9.95943 25.9125H12.0309V7.64997H9.95943V25.9125ZM16.9691 25.9125H19.0406V7.64997H16.9691V25.9125Z" fill="white"/>
</svg>
