<svg width="14" height="15" viewBox="0 0 14 15" fill="none" xmlns="http://www.w3.org/2000/svg">
<path d="M5.55306 4.42143C5.55304 3.7636 5.71333 3.11567 6.02006 2.53372C6.32679 1.95178 6.77072 1.45335 7.31343 1.08158C7.85614 0.709807 8.48127 0.475893 9.13472 0.400081C9.78817 0.32427 10.4503 0.408845 11.0637 0.646487C11.142 0.67695 11.2116 0.726464 11.266 0.790552C11.3205 0.854641 11.3581 0.931285 11.3754 1.01356C11.3928 1.09583 11.3894 1.18113 11.3656 1.26176C11.3417 1.34239 11.2981 1.4158 11.2387 1.47536L9.30472 3.40938L10.6133 4.71796L12.5463 2.78495C12.6058 2.72533 12.6792 2.6815 12.7599 2.65743C12.8406 2.63336 12.926 2.62981 13.0084 2.64709C13.0908 2.66438 13.1676 2.70196 13.2319 2.75643C13.2961 2.8109 13.3457 2.88053 13.3762 2.95902C13.6486 3.66153 13.7195 4.42612 13.581 5.16675C13.4425 5.90739 13.1 6.59466 12.5921 7.15124C12.0842 7.70782 11.4311 8.11161 10.7062 8.31717C9.98133 8.52273 9.21346 8.5219 8.48901 8.31478L3.42371 13.4489C3.04909 13.8196 2.54386 14.0284 2.01684 14.0302C1.48981 14.032 0.983158 13.8267 0.606007 13.4586C0.228856 13.0905 0.0113844 12.5889 0.000434382 12.062C-0.0105157 11.5351 0.185931 11.025 0.547463 10.6415L5.65831 5.34442C5.58792 5.04181 5.55261 4.73211 5.55306 4.42143ZM9.60125 1.38528C9.12418 1.3851 8.65378 1.49735 8.22819 1.71292C7.8026 1.92849 7.4338 2.24132 7.15169 2.62604C6.86958 3.01077 6.6821 3.45656 6.60445 3.92727C6.5268 4.39798 6.56117 4.88036 6.70477 5.33531C6.73224 5.42219 6.73574 5.51489 6.7149 5.6036C6.69406 5.69231 6.64965 5.77375 6.58636 5.83931L1.27513 11.3438C1.10079 11.535 1.00753 11.7865 1.01502 12.0451C1.02251 12.3037 1.13017 12.5493 1.31528 12.7301C1.50039 12.9109 1.74848 13.0127 2.00722 13.0141C2.26595 13.0154 2.51511 12.9162 2.70211 12.7374L7.99007 7.38066C8.05887 7.31115 8.14634 7.26308 8.24189 7.24224C8.33744 7.22141 8.43699 7.22871 8.52848 7.26326C9.01053 7.44518 9.53095 7.50142 10.0407 7.4267C10.5505 7.35199 11.0329 7.14876 11.4425 6.83616C11.8521 6.52357 12.1754 6.11188 12.3819 5.63986C12.5885 5.16784 12.6715 4.65102 12.6232 4.13805L10.9706 5.79174C10.8757 5.88661 10.747 5.9399 10.6128 5.9399C10.4786 5.9399 10.3499 5.88661 10.255 5.79174L8.23094 3.76765C8.13607 3.67275 8.08278 3.54407 8.08278 3.40989C8.08278 3.27571 8.13607 3.14702 8.23094 3.05213L9.88462 1.39844C9.79042 1.38964 9.69586 1.38525 9.60125 1.38528Z" fill="white"/>
</svg>
