<svg width="22" height="39" viewBox="0 0 22 39" fill="none" xmlns="http://www.w3.org/2000/svg">
<path fill-rule="evenodd" clip-rule="evenodd" d="M21.1601 21.607C21.6979 21.0577 22 20.3127 22 19.536C22 18.7593 21.6979 18.0143 21.1601 17.465L4.93206 0.894265C4.66744 0.614491 4.3509 0.391335 4.00091 0.237816C3.65092 0.0842975 3.27449 0.00349073 2.8936 0.000110879C2.5127 -0.00326898 2.13495 0.0708467 1.7824 0.218132C1.42986 0.365418 1.10956 0.582924 0.840215 0.85796C0.570868 1.133 0.357861 1.46005 0.213622 1.82004C0.0693831 2.18003 -0.00319841 2.56576 0.000111463 2.9547C0.00342134 3.34365 0.0825571 3.72802 0.232901 4.0854C0.383245 4.44278 0.601785 4.76601 0.875772 5.03622L15.0757 19.536L0.875769 34.0358C0.353219 34.5882 0.0640734 35.3282 0.0706094 36.0962C0.0771454 36.8642 0.378839 37.5989 0.910713 38.142C1.44259 38.6852 2.16208 38.9932 2.91424 38.9999C3.66639 39.0066 4.39103 38.7113 4.93206 38.1777L21.1601 21.607Z" fill="white"/>
</svg>
