<svg width="22" height="39" viewBox="0 0 22 39" fill="none" xmlns="http://www.w3.org/2000/svg">
<path fill-rule="evenodd" clip-rule="evenodd" d="M0.839905 21.607C0.302113 21.0577 -1.69647e-06 20.3127 -1.76437e-06 19.536C-1.83228e-06 18.7593 0.302113 18.0143 0.839905 17.465L17.0679 0.894265C17.3326 0.614492 17.6491 0.391334 17.9991 0.237815C18.3491 0.0842961 18.7255 0.00349185 19.1064 0.000112007C19.4873 -0.00326784 19.865 0.0708465 20.2176 0.218132C20.5701 0.365417 20.8904 0.582925 21.1598 0.85796C21.4291 1.133 21.6421 1.46005 21.7864 1.82004C21.9306 2.18004 22.0032 2.56576 21.9999 2.9547C21.9966 3.34365 21.9174 3.72802 21.7671 4.0854C21.6168 4.44278 21.3982 4.76601 21.1242 5.03622L6.92434 19.536L21.1242 34.0358C21.6468 34.5882 21.9359 35.3282 21.9294 36.0962C21.9229 36.8642 21.6212 37.5989 21.0893 38.142C20.5574 38.6852 19.8379 38.9932 19.0858 38.9999C18.3336 39.0066 17.609 38.7113 17.0679 38.1777L0.839905 21.607Z" fill="#0A58CA"/>
</svg>
