<svg width="46" height="46" viewBox="0 0 46 46" fill="none" xmlns="http://www.w3.org/2000/svg">
<path fill-rule="evenodd" clip-rule="evenodd" d="M31.8839 4.44918C30.8262 4.32966 29.7508 4.36429 28.6916 4.55728C26.5018 4.95626 24.4856 6.01314 22.9117 7.58705C21.3378 9.16096 20.2809 11.1772 19.8819 13.367C19.4829 15.5568 19.7608 17.8161 20.6784 19.844C21.0542 20.6745 20.8763 21.6509 20.2318 22.2954L5.09916 37.428C4.63864 37.8886 4.37992 38.5132 4.37992 39.1644C4.37992 39.8157 4.63864 40.4403 5.09916 40.9008C5.55968 41.3614 6.18429 41.6201 6.83556 41.6201C7.48684 41.6201 8.11144 41.3614 8.57197 40.9008L23.7046 25.7682C24.3491 25.1237 25.3255 24.9458 26.156 25.3216C28.1839 26.2392 30.4432 26.5171 32.633 26.1181C34.8228 25.7191 36.839 24.6622 38.4129 23.0883C39.9869 21.5144 41.0437 19.4982 41.4427 17.3084C41.6357 16.2492 41.6703 15.1738 41.5508 14.1161L35.9183 19.7487C35.0996 20.5512 33.9987 21.0006 32.8523 21.0006C31.7058 21.0006 30.6051 20.5511 29.7863 19.7486L29.7707 19.7332L26.2513 16.2137C25.4488 15.395 24.9994 14.2942 24.9994 13.1477C24.9994 12.0013 25.4489 10.9005 26.2514 10.0818L26.2668 10.0661L31.8839 4.44918ZM27.9065 0.248301C30.9722 -0.31028 34.1353 0.0787095 36.9744 1.36343C37.6293 1.65982 38.0971 2.25879 38.226 2.96606C38.3549 3.67333 38.1284 4.3988 37.62 4.90715L29.3795 13.1477L32.8523 16.6205L41.0928 8.37996C41.6012 7.87161 42.3267 7.64514 43.0339 7.774C43.7412 7.90287 44.3402 8.37066 44.6366 9.02563C45.9213 11.8647 46.3103 15.0278 45.7517 18.0935C45.1931 21.1592 43.7135 23.9819 41.51 26.1854C39.3065 28.3889 36.4839 29.8685 33.4181 30.4271C30.8615 30.8929 28.2371 30.6997 25.7894 29.8776L11.669 43.9979C10.3871 45.2798 8.64847 46 6.83556 46C5.02266 46 3.28401 45.2798 2.00209 43.9979C0.720173 42.716 0 40.9773 0 39.1644C0 37.3515 0.720174 35.6129 2.00209 34.331L16.1224 20.2106C15.3003 17.7629 15.1071 15.1385 15.5729 12.5819C16.1315 9.51614 17.6111 6.69346 19.8146 4.48998C22.0181 2.2865 24.8408 0.806881 27.9065 0.248301Z" fill="white"/>
</svg>
