<svg width="497" height="203" viewBox="0 0 497 203" fill="none" xmlns="http://www.w3.org/2000/svg">
<path fill-rule="evenodd" clip-rule="evenodd" d="M29.0153 96.852L66.2919 57.9233H67.3666L59.1053 96.852H83.2175L91.4788 57.9233H92.4863L113.307 96.852H138.629L113.643 50.0704L160.122 0H133.927L96.1132 40.6067H95.1729L103.837 0H79.7249L71.0606 40.5396H70.1875L49.635 0H24.3809L48.0902 46.3789L0 96.852H29.0153ZM167.212 96.852H145.316L165.936 0H194.279L204.22 65.6419H204.69L241.631 0H272.392L251.772 96.852H229.809L243.578 32.4854H242.84L206.033 96.7178H191.055L181.383 32.4854H180.913L167.212 96.852ZM298.758 48.6609H309.034C318.169 48.6609 323.743 53.0908 323.743 61.4135C323.743 71.347 316.02 78.1931 305.072 78.1931H292.445L298.758 48.6609ZM284.452 0L263.832 96.852H305.139C331.199 96.852 348.393 82.2202 348.393 59.467C348.393 40.5396 335.565 29.7335 314.139 29.7335H302.788L309.102 0H284.452ZM353.095 96.852H377.744L398.364 0H373.714L353.095 96.852ZM425.402 47.9226L383.76 96.852H411.969L436.014 66.1118H436.551L449.581 96.852H476.112L455.156 48.7281L497 0H468.186L444.41 30.4047H443.872L431.044 0H404.514L425.402 47.9226ZM375.094 186.917H366.744C367.273 196.771 375.434 203 387.524 203C400.444 203 408.567 196.62 408.567 186.426C408.567 178.46 403.92 173.967 392.737 171.324L386.73 169.852C379.703 168.115 376.832 165.85 376.832 161.999C376.832 157.166 381.328 153.844 387.901 153.844C394.475 153.844 398.971 157.129 399.462 162.565H407.698C407.434 153.164 399.538 146.709 388.015 146.709C376.378 146.709 368.18 153.164 368.18 162.565C368.18 170.154 372.827 174.835 382.839 177.252L389.904 178.951C396.969 180.687 399.953 183.217 399.953 187.445C399.953 192.316 395.004 195.864 388.128 195.864C380.95 195.864 375.698 192.316 375.094 186.917ZM358.925 202.094V194.77H332.781V177.856H357.528V170.833H332.781V154.901H358.925V147.615H324.319V202.094H358.925ZM276.452 202.094H268.216V147.615H275.886L304.145 187.785H304.448V147.615H312.684V202.094H305.052L276.793 161.961H276.452V202.094ZM248.156 202.094H256.619V147.615H248.156V202.094ZM239.355 194.77V202.094H205.504V147.615H213.966V194.77H239.355ZM164.891 174.307V154.712H176.528C183.064 154.712 187.031 158.412 187.031 164.491C187.031 170.72 183.29 174.307 176.754 174.307H164.891ZM164.891 202.094V181.14H176.528L187.635 202.094H197.382L185.179 179.819C191.829 177.591 195.758 171.626 195.758 164.264C195.758 154.108 188.768 147.615 177.548 147.615H156.428V202.094H164.891ZM144.831 202.094H136.369V147.615H144.831V202.094ZM114.873 187.37L119.86 202.094H128.814L109.131 147.615H99.9878L80.3042 202.094H89.1071L94.0941 187.37H114.873ZM96.2475 180.574L104.37 156.676H104.597L112.72 180.574H96.2475ZM4.09707 118.33C2.91005 118.33 1.94779 119.292 1.94779 120.478C1.94779 121.664 2.91004 122.626 4.09706 122.626H483.387C484.574 122.626 485.536 121.664 485.536 120.478C485.536 119.292 484.574 118.33 483.387 118.33H4.09707Z" fill="#343434"/>
</svg>
