<svg width="52" height="52" viewBox="0 0 52 52" fill="none" xmlns="http://www.w3.org/2000/svg">
<path fill-rule="evenodd" clip-rule="evenodd" d="M26 5.2C20.4835 5.2 15.1929 7.39142 11.2922 11.2922C7.39142 15.1929 5.2 20.4835 5.2 26C5.2 28.7315 5.73801 31.4362 6.7833 33.9598C7.8286 36.4834 9.36072 38.7764 11.2922 40.7078C13.2236 42.6393 15.5166 44.1714 18.0402 45.2167C20.5638 46.262 23.2685 46.8 26 46.8C28.7315 46.8 31.4362 46.262 33.9598 45.2167C36.4834 44.1714 38.7764 42.6393 40.7078 40.7078C42.6393 38.7764 44.1714 36.4834 45.2167 33.9598C46.262 31.4362 46.8 28.7315 46.8 26C46.8 20.4835 44.6086 15.1929 40.7078 11.2922C36.8071 7.39142 31.5165 5.2 26 5.2ZM7.61522 7.61522C12.4912 2.73928 19.1044 0 26 0C32.8956 0 39.5088 2.73928 44.3848 7.61522C49.2607 12.4912 52 19.1044 52 26C52 29.4144 51.3275 32.7953 50.0209 35.9498C48.7142 39.1042 46.7991 41.9705 44.3848 44.3848C41.9705 46.7991 39.1042 48.7142 35.9498 50.0209C32.7953 51.3275 29.4144 52 26 52C22.5856 52 19.2047 51.3275 16.0502 50.0209C12.8958 48.7142 10.0295 46.7991 7.61522 44.3848C5.2009 41.9705 3.28575 39.1042 1.97913 35.9498C0.67251 32.7953 0 29.4144 0 26C1.54972e-07 19.1044 2.73928 12.4912 7.61522 7.61522ZM26 10.4C27.4359 10.4 28.6 11.5641 28.6 13V13.2401C31.0447 13.6997 33.258 14.8101 34.721 16.4958C35.6622 17.5803 35.5461 19.2224 34.4616 20.1636C33.3771 21.1048 31.735 20.9887 30.7938 19.9042C30.371 19.417 29.6168 18.922 28.6 18.5919V23.6391C30.2161 23.9425 31.7109 24.5281 32.9577 25.3592C34.8344 26.6102 36.4 28.624 36.4 31.2C36.4 33.776 34.8344 35.7898 32.9577 37.0408C31.7109 37.8719 30.2161 38.4575 28.6 38.7609V39C28.6 40.4359 27.4359 41.6 26 41.6C24.5641 41.6 23.4 40.4359 23.4 39V38.7599C20.9553 38.3003 18.742 37.1899 17.279 35.5042C16.3378 34.4197 16.4539 32.7776 17.5384 31.8364C18.6229 30.8952 20.265 31.0113 21.2062 32.0958C21.629 32.583 22.3832 33.078 23.4 33.4081V28.3609C21.7839 28.0575 20.2891 27.4719 19.0423 26.6408C17.1656 25.3898 15.6 23.376 15.6 20.8C15.6 18.224 17.1656 16.2102 19.0423 14.9592C20.2891 14.1281 21.7839 13.5425 23.4 13.2391V13C23.4 11.5641 24.5641 10.4 26 10.4ZM23.4 18.5924C22.8262 18.778 22.329 19.0177 21.9265 19.286C20.9803 19.9168 20.8 20.503 20.8 20.8C20.8 21.097 20.9803 21.6832 21.9265 22.314C22.329 22.5822 22.8262 22.822 23.4 23.0076V18.5924ZM28.6 28.9924V33.4076C29.1738 33.222 29.671 32.9822 30.0735 32.714C31.0197 32.0832 31.2 31.497 31.2 31.2C31.2 30.903 31.0197 30.3168 30.0735 29.686C29.671 29.4177 29.1738 29.178 28.6 28.9924Z" fill="white"/>
</svg>
