<svg width="50" height="50" viewBox="0 0 50 50" fill="none" xmlns="http://www.w3.org/2000/svg">
<path fill-rule="evenodd" clip-rule="evenodd" d="M20.2703 11.4865C20.2703 8.87433 22.3878 6.75676 25 6.75676C27.6122 6.75676 29.7297 8.87433 29.7297 11.4865C29.7297 14.0986 27.6122 16.2162 25 16.2162C22.3878 16.2162 20.2703 14.0986 20.2703 11.4865ZM25 0C18.6562 0 13.5135 5.14268 13.5135 11.4865C13.5135 17.8303 18.6562 22.973 25 22.973C31.3438 22.973 36.4865 17.8303 36.4865 11.4865C36.4865 5.14268 31.3438 0 25 0ZM8.93367 35.9607C10.3275 34.5668 12.218 33.7838 14.1892 33.7838H35.8108C37.782 33.7838 39.6725 34.5668 41.0663 35.9607C42.4602 37.3545 43.2432 39.245 43.2432 41.2162C43.2432 41.7538 43.0297 42.2694 42.6495 42.6495C42.2694 43.0297 41.7538 43.2432 41.2162 43.2432H8.78378C8.24619 43.2432 7.7306 43.0297 7.35046 42.6495C6.97032 42.2694 6.75676 41.7538 6.75676 41.2162C6.75676 39.245 7.53981 37.3545 8.93367 35.9607ZM14.1892 27.027C10.426 27.027 6.81691 28.522 4.15592 31.1829C1.49493 33.8439 0 37.453 0 41.2162C0 43.5458 0.925432 45.78 2.57271 47.4273C4.21999 49.0746 6.45418 50 8.78378 50H41.2162C43.5458 50 45.78 49.0746 47.4273 47.4273C49.0746 45.78 50 43.5458 50 41.2162C50 37.453 48.5051 33.8439 45.8441 31.1829C43.1831 28.522 39.574 27.027 35.8108 27.027H14.1892Z" fill="white"/>
</svg>
