<svg width="135" height="132" viewBox="0 0 135 132" fill="none" xmlns="http://www.w3.org/2000/svg">
<path fill-rule="evenodd" clip-rule="evenodd" d="M59.4343 0.311386C60.9831 -0.201864 62.6724 -0.0769023 64.1288 0.658653L70.5427 3.89789C70.5481 3.90059 70.5535 3.90329 70.5589 3.90599C73.238 5.24433 75.5504 7.21637 77.2955 9.65119C79.0441 12.0909 80.1702 14.9214 80.5756 17.896L80.5781 17.9142L84.9938 51.0495C84.9941 51.0521 84.9945 51.0547 84.9949 51.0573C85.1309 52.046 85.5058 52.9867 86.0872 53.7978C86.6701 54.611 87.4428 55.2694 88.3381 55.7156L88.3466 55.7198L115.347 69.2268L115.45 69.2795C118.943 71.1102 122.068 73.9156 124.125 77.5605L127.784 83.8455L127.843 83.949C132.929 93.087 127.266 104.639 116.734 105.922C116.726 105.923 116.717 105.924 116.708 105.925L109.513 106.84C109.512 106.84 109.515 106.84 109.513 106.84C105.461 107.357 101.264 106.681 97.5401 104.745L17.4131 64.7222C15.6466 63.8258 14.0363 62.65 12.6443 61.2403L1.79747 50.3878C0.00209541 48.5915 -0.502145 45.8744 0.529061 43.553L12.8018 15.9251C13.4824 14.3929 14.7597 13.2059 16.3371 12.6397C17.9144 12.0735 19.6546 12.1774 21.1535 12.9272L27.9433 16.3239C33.3202 19.0627 36.8183 24.5819 36.8183 30.6977C36.8183 32.067 37.6096 33.4191 38.9732 34.1208L40.2104 34.7397L55.8752 3.39386C56.6048 1.93384 57.8856 0.824636 59.4343 0.311386ZM64.0975 14.3975L48.4432 45.7224C47.7154 47.1788 46.4391 48.2863 44.8952 48.8012C43.3512 49.3161 41.6661 49.1963 40.2104 48.4681L33.4206 45.0715C28.0437 42.3327 24.5456 36.8135 24.5456 30.6977C24.5456 29.3284 23.7543 27.9762 22.3906 27.2745L21.4087 26.7833L13.4557 44.6868L21.369 52.6043C21.8306 53.073 22.3644 53.4645 22.9501 53.7636L103.071 93.7832L103.177 93.8377C104.592 94.5795 106.266 94.876 107.959 94.6597L115.246 93.7329C116.958 93.5274 118.028 91.6122 117.141 89.9605L113.498 83.7024L113.448 83.6159C112.689 82.2623 111.425 81.0422 109.8 80.1807L82.8666 66.7068C82.8649 66.7059 82.8683 66.7076 82.8666 66.7068C80.1828 65.3683 77.8613 63.3917 76.1138 60.9535C74.3651 58.5137 73.2391 55.6833 72.8336 52.7086L72.8312 52.6905L68.4155 19.5551C68.4151 19.5525 68.4147 19.5499 68.4144 19.5473C68.2783 18.5586 67.9034 17.618 67.3221 16.8069C66.7392 15.9936 65.9665 15.3353 65.0711 14.8891L65.0418 14.8745L64.0975 14.3975ZM0.000178441 125.86C0.000178441 122.47 2.74752 119.721 6.13653 119.721H128.864C132.253 119.721 135 122.47 135 125.86C135 129.251 132.253 132 128.864 132H6.13653C2.74752 132 0.000178441 129.251 0.000178441 125.86Z" fill="#989797"/>
</svg>
