<svg width="52" height="48" viewBox="0 0 52 48" fill="none" xmlns="http://www.w3.org/2000/svg">
<path fill-rule="evenodd" clip-rule="evenodd" d="M17.1202 0.8759C17.5297 0.324308 18.1701 0 18.85 0H26C26.7775 0 27.4954 0.423382 27.8812 1.10942L36.7907 16.9541H45.0667C46.9055 16.9541 48.669 17.6965 49.9693 19.0178C51.2695 20.3392 52 22.1313 52 24C52 25.8687 51.2695 27.6608 49.9693 28.9822C48.669 30.3035 46.9055 31.0459 45.0667 31.0459H36.7907L27.8812 46.8906C27.4954 47.5766 26.7775 48 26 48H18.85C18.1701 48 17.5297 47.6757 17.1202 47.1241C16.7108 46.5725 16.5799 45.8576 16.7667 45.1933L20.7443 31.0459H14.9808L10.8487 35.245C10.4424 35.6579 9.8913 35.8899 9.31667 35.8899H2.16667C1.41575 35.8899 0.718373 35.4948 0.323592 34.8456C-0.0711888 34.1965 -0.107077 33.3859 0.228743 32.7034L4.51093 24L0.228743 15.2966C-0.107077 14.6141 -0.0711888 13.8035 0.323592 13.1544C0.718373 12.5052 1.41575 12.1101 2.16667 12.1101H9.31667C9.8913 12.1101 10.4424 12.3421 10.8487 12.755L14.9808 16.9541H20.7443L16.7667 2.80673C16.5799 2.14239 16.7108 1.42749 17.1202 0.8759ZM21.7224 4.40367L25.7 18.5511C25.8867 19.2154 25.7558 19.9303 25.3464 20.4819C24.937 21.0335 24.2965 21.3578 23.6167 21.3578H14.0833C13.5087 21.3578 12.9576 21.1258 12.5513 20.7129L8.4192 16.5138H5.67241L8.87126 23.0153C9.17625 23.6352 9.17625 24.3648 8.87126 24.9847L5.67241 31.4862H8.41921L12.5513 27.2871C12.9576 26.8742 13.5087 26.6422 14.0833 26.6422H23.6167C24.2965 26.6422 24.937 26.9665 25.3464 27.5181C25.7558 28.0697 25.8867 28.7846 25.7 29.4489L21.7224 43.5963H24.7426L33.6521 27.7516C34.0379 27.0656 34.7558 26.6422 35.5333 26.6422H45.0667C45.7562 26.6422 46.4176 26.3638 46.9051 25.8683C47.3927 25.3728 47.6667 24.7008 47.6667 24C47.6667 23.2992 47.3927 22.6272 46.9051 22.1317C46.4176 21.6362 45.7562 21.3578 45.0667 21.3578H35.5333C34.7558 21.3578 34.0379 20.9344 33.6521 20.2484L24.7426 4.40367H21.7224Z" fill="white"/>
</svg>
