<svg width="146" height="136" viewBox="0 0 146 136" fill="none" xmlns="http://www.w3.org/2000/svg">
<path fill-rule="evenodd" clip-rule="evenodd" d="M35.4237 15.3204L35.4093 15.3283L52.3308 52.5485C53.1225 54.2899 53.248 56.3072 52.6792 58.151C52.1104 59.9947 50.8947 61.5116 49.3029 62.3637L41.8496 66.3534C39.0858 67.8754 36.0372 68.6681 32.9458 68.6681C29.8377 68.6681 26.7728 67.8668 23.9972 66.3286C23.869 66.2576 23.7429 66.1819 23.6192 66.1019L22.7099 65.5136C21.8276 65.057 20.8639 64.8197 19.8874 64.8197C18.8513 64.8197 17.8297 65.0868 16.9045 65.5996L16.886 65.6098L15.5234 66.3591L24.3118 85.69L35.3252 87.7429C35.7591 87.7281 36.1969 87.7601 36.6323 87.8408C38.0094 88.0959 39.4245 87.8663 40.6758 87.1847L125.745 40.77C127.564 39.7396 128.996 38.121 129.894 36.1457L132.448 30.5272C132.628 30.142 132.729 29.7177 132.741 29.2847C132.754 28.8517 132.678 28.4211 132.521 28.0241C132.363 27.6271 132.127 27.2738 131.829 26.9898C131.532 26.7059 131.18 26.4984 130.801 26.3825L130.736 26.3627L124.337 24.3308C122.11 23.6528 119.733 23.9129 117.67 25.0607L117.602 25.0989L89.8491 40.1044C89.8453 40.1065 89.8415 40.1086 89.8377 40.1106C86.5206 41.9177 82.8107 42.6707 79.1255 42.2847C75.4474 41.8994 71.9399 40.3949 68.9962 37.9402L42.3347 16.0581C41.355 15.2424 40.1885 14.7421 38.9653 14.6134C37.7479 14.4853 36.5222 14.73 35.4237 15.3204ZM36.0463 102.443C35.5095 102.49 34.9646 102.464 34.4233 102.363L18.7797 99.4469C16.6951 99.0583 14.9041 97.5994 13.9586 95.5196L0.701257 66.3591C-0.935947 62.7579 0.391269 58.379 3.66568 56.5784L10.9387 52.579C10.9421 52.5771 10.9455 52.5752 10.9489 52.5734C13.7219 51.0388 16.7831 50.2395 19.8874 50.2395C22.9955 50.2395 26.0604 51.0408 28.8361 52.579C28.9643 52.6501 29.0903 52.7257 29.214 52.8057L30.1234 53.394C31.0056 53.8506 31.9693 54.0879 32.9458 54.0879C33.9819 54.0879 35.0035 53.8208 35.9287 53.308L36.0104 53.2628L37.4769 52.4785L20.5872 15.3283C19.801 13.599 19.6716 11.597 20.2276 9.76272C20.7835 7.92848 21.9792 6.41225 23.5516 5.54758L29.5558 2.24594C32.8635 0.456336 36.5586 -0.286723 40.2281 0.0994757C43.8894 0.484795 47.3816 1.97924 50.3166 4.41642L76.997 26.3141C77.9802 27.1368 79.1526 27.6413 80.3824 27.7701C81.6122 27.8989 82.8503 27.6472 83.9569 27.0434L83.9784 27.0317L111.721 12.0311C116.738 9.25139 122.518 8.63224 127.929 10.2961L127.983 10.3125L134.385 12.3452C136.648 13.0428 138.743 14.2835 140.518 15.9782C142.304 17.6819 143.721 19.8018 144.668 22.1836C145.615 24.5653 146.067 27.1492 145.992 29.7474C145.917 32.3291 145.324 34.8605 144.255 37.1598L141.751 42.6662C139.605 47.3872 136.142 51.3022 131.744 53.7719L131.676 53.8104L46.5639 100.248C43.2982 102.027 39.6569 102.782 36.0463 102.443ZM0.00145223 128.71C0.00145223 124.684 2.9692 121.42 6.6301 121.42H139.203C142.864 121.42 145.832 124.684 145.832 128.71C145.832 132.736 142.864 136 139.203 136H6.6301C2.9692 136 0.00145223 132.736 0.00145223 128.71Z" fill="#989797"/>
</svg>
