<svg width="30" height="28" viewBox="0 0 30 28" fill="black" xmlns="http://www.w3.org/2000/svg">
<path fill-rule="evenodd" clip-rule="evenodd" d="M9.87706 0.510942C10.1133 0.18918 10.4828 0 10.875 0H15C15.4486 0 15.8628 0.246973 16.0853 0.647161L21.2254 9.88991H26C27.0609 9.88991 28.0783 10.3229 28.8284 11.0937C29.5786 11.8645 30 12.9099 30 14C30 15.0901 29.5786 16.1355 28.8284 16.9063C28.0783 17.6771 27.0609 18.1101 26 18.1101H21.2254L16.0853 27.3528C15.8628 27.753 15.4486 28 15 28H10.875C10.4828 28 10.1133 27.8108 9.87706 27.4891C9.64086 27.1673 9.56534 26.7503 9.6731 26.3627L11.9678 18.1101H8.64277L6.25888 20.5596C6.02446 20.8005 5.70652 20.9358 5.375 20.9358H1.25C0.816779 20.9358 0.414446 20.7053 0.186688 20.3266C-0.0410704 19.948 -0.0617755 19.4751 0.131967 19.077L2.60246 14L0.131967 8.92303C-0.0617755 8.52488 -0.0410704 8.05204 0.186688 7.67337C0.414446 7.29471 0.816779 7.06422 1.25 7.06422H5.375C5.70652 7.06422 6.02446 7.19954 6.25888 7.44041L8.64277 9.88991H11.9678L9.6731 1.63726C9.56534 1.24973 9.64086 0.832703 9.87706 0.510942ZM12.5322 2.56881L14.8269 10.8215C14.9347 11.209 14.8591 11.626 14.6229 11.9478C14.3867 12.2695 14.0172 12.4587 13.625 12.4587H8.125C7.79348 12.4587 7.47554 12.3234 7.24112 12.0825L4.85723 9.63303H3.27254L5.11804 13.4256C5.29399 13.7872 5.29399 14.2128 5.11804 14.5744L3.27254 18.367H4.85723L7.24112 15.9175C7.47554 15.6766 7.79348 15.5413 8.125 15.5413H13.625C14.0172 15.5413 14.3867 15.7305 14.6229 16.0522C14.8591 16.374 14.9347 16.791 14.8269 17.1785L12.5322 25.4312H14.2746L19.4147 16.1884C19.6372 15.7883 20.0514 15.5413 20.5 15.5413H26C26.3978 15.5413 26.7794 15.3789 27.0607 15.0899C27.342 14.8008 27.5 14.4088 27.5 14C27.5 13.5912 27.342 13.1992 27.0607 12.9101C26.7794 12.6211 26.3978 12.4587 26 12.4587H20.5C20.0514 12.4587 19.6372 12.2117 19.4147 11.8116L14.2746 2.56881H12.5322Z" fill="#989797"/>
</svg>
