<svg width="41" height="41" viewBox="0 0 41 41" fill="none" xmlns="http://www.w3.org/2000/svg">
<path d="M38.4375 17.9375H23.0625V2.5625C23.0625 1.88288 22.7925 1.2311 22.312 0.750539C21.8314 0.269977 21.1796 0 20.5 0C19.8204 0 19.1686 0.269977 18.688 0.750539C18.2075 1.2311 17.9375 1.88288 17.9375 2.5625V17.9375H2.5625C1.88288 17.9375 1.2311 18.2075 0.750539 18.688C0.269977 19.1686 0 19.8204 0 20.5C0 21.1796 0.269977 21.8314 0.750539 22.312C1.2311 22.7925 1.88288 23.0625 2.5625 23.0625H17.9375V38.4375C17.9375 39.1171 18.2075 39.7689 18.688 40.2495C19.1686 40.73 19.8204 41 20.5 41C21.1796 41 21.8314 40.73 22.312 40.2495C22.7925 39.7689 23.0625 39.1171 23.0625 38.4375V23.0625H38.4375C39.1171 23.0625 39.7689 22.7925 40.2495 22.312C40.73 21.8314 41 21.1796 41 20.5C41 19.8204 40.73 19.1686 40.2495 18.688C39.7689 18.2075 39.1171 17.9375 38.4375 17.9375Z" fill="white"/>
</svg>
