<svg width="46" height="46" viewBox="0 0 46 46" fill="none" xmlns="http://www.w3.org/2000/svg">
<path d="M5.75 2.875C5.75 2.1125 5.4471 1.38123 4.90793 0.842068C4.36877 0.302901 3.6375 0 2.875 0C2.1125 0 1.38123 0.302901 0.842068 0.842068C0.302901 1.38123 1.60684e-08 2.1125 0 2.875V35.4583C0 38.2542 1.11064 40.9355 3.08758 42.9124C5.06453 44.8894 7.74584 46 10.5417 46H43.125C43.8875 46 44.6188 45.6971 45.1579 45.1579C45.6971 44.6188 46 43.8875 46 43.125C46 42.3625 45.6971 41.6312 45.1579 41.0921C44.6188 40.5529 43.8875 40.25 43.125 40.25H10.5417C7.89667 40.25 5.75 38.1033 5.75 35.4583V2.875ZM29.7083 10.5417C29.7083 12.1287 30.9963 13.4167 32.5833 13.4167H36.1867L26.8333 22.77L21.1983 17.135C20.6593 16.5966 19.9285 16.2942 19.1667 16.2942C18.4048 16.2942 17.6741 16.5966 17.135 17.135L11.385 22.885C10.8772 23.43 10.6007 24.1508 10.6138 24.8957C10.627 25.6405 10.9287 26.3511 11.4554 26.8779C11.9822 27.4046 12.6928 27.7064 13.4377 27.7195C14.1825 27.7326 14.9033 27.4562 15.4483 26.9483L19.1667 23.23L24.8017 28.865C25.3407 29.4034 26.0715 29.7058 26.8333 29.7058C27.5952 29.7058 28.3259 29.4034 28.865 28.865L40.25 17.48V21.3785C40.25 22.141 40.5529 22.8723 41.0921 23.4114C41.6312 23.9506 42.3625 24.2535 43.125 24.2535C43.8875 24.2535 44.6188 23.9506 45.1579 23.4114C45.6971 22.8723 46 22.141 46 21.3785V10.5417C46 9.77917 45.6971 9.0479 45.1579 8.50873C44.6188 7.96957 43.8875 7.66667 43.125 7.66667H32.5833C31.8208 7.66667 31.0896 7.96957 30.5504 8.50873C30.0112 9.0479 29.7083 9.77917 29.7083 10.5417Z" fill="white"/>
</svg>
